<svg xmlns="http://www.w3.org/2000/svg" viewBox="0 0 400 400" width="400" height="400"><rect width="400" height="400" fill="#ffffff"/><path fill="#000000" d="M48.484848484848484,48.484848484848484h12.121212121212121v12.121212121212121h-12.121212121212121zM60.60606060606061,48.484848484848484h12.121212121212121v12.121212121212121h-12.121212121212121zM72.72727272727272,48.484848484848484h12.121212121212121v12.121212121212121h-12.121212121212121zM84.84848484848484,48.484848484848484h12.121212121212121v12.121212121212121h-12.121212121212121zM96.96969696969697,48.484848484848484h12.121212121212121v12.121212121212121h-12.121212121212121zM109.0909090909091,48.484848484848484h12.121212121212121v12.121212121212121h-12.121212121212121zM121.21212121212122,48.484848484848484h12.121212121212121v12.121212121212121h-12.121212121212121zM145.45454545454544,48.484848484848484h12.121212121212121v12.121212121212121h-12.121212121212121zM169.6969696969697,48.484848484848484h12.121212121212121v12.121212121212121h-12.121212121212121zM181.8181818181818,48.484848484848484h12.121212121212121v12.121212121212121h-12.121212121212121zM206.06060606060606,48.484848484848484h12.121212121212121v12.121212121212121h-12.121212121212121zM218.1818181818182,48.484848484848484h12.121212121212121v12.121212121212121h-12.121212121212121zM230.3030303030303,48.484848484848484h12.121212121212121v12.121212121212121h-12.121212121212121zM266.6666666666667,48.484848484848484h12.121212121212121v12.121212121212121h-12.121212121212121zM278.7878787878788,48.484848484848484h12.121212121212121v12.121212121212121h-12.121212121212121zM290.9090909090909,48.484848484848484h12.121212121212121v12.121212121212121h-12.121212121212121zM303.030303030303,48.484848484848484h12.121212121212121v12.121212121212121h-12.121212121212121zM315.1515151515151,48.484848484848484h12.121212121212121v12.121212121212121h-12.121212121212121zM327.27272727272725,48.484848484848484h12.121212121212121v12.121212121212121h-12.121212121212121zM339.3939393939394,48.484848484848484h12.121212121212121v12.121212121212121h-12.121212121212121zM48.484848484848484,60.60606060606061h12.121212121212121v12.121212121212121h-12.121212121212121zM121.21212121212122,60.60606060606061h12.121212121212121v12.121212121212121h-12.121212121212121zM157.57575757575756,60.60606060606061h12.121212121212121v12.121212121212121h-12.121212121212121zM169.6969696969697,60.60606060606061h12.121212121212121v12.121212121212121h-12.121212121212121zM181.8181818181818,60.60606060606061h12.121212121212121v12.121212121212121h-12.121212121212121zM193.93939393939394,60.60606060606061h12.121212121212121v12.121212121212121h-12.121212121212121zM206.06060606060606,60.60606060606061h12.121212121212121v12.121212121212121h-12.121212121212121zM230.3030303030303,60.60606060606061h12.121212121212121v12.121212121212121h-12.121212121212121zM242.42424242424244,60.60606060606061h12.121212121212121v12.121212121212121h-12.121212121212121zM266.6666666666667,60.60606060606061h12.121212121212121v12.121212121212121h-12.121212121212121zM339.3939393939394,60.60606060606061h12.121212121212121v12.121212121212121h-12.121212121212121zM48.484848484848484,72.72727272727272h12.121212121212121v12.121212121212121h-12.121212121212121zM72.72727272727272,72.72727272727272h12.121212121212121v12.121212121212121h-12.121212121212121zM84.84848484848484,72.72727272727272h12.121212121212121v12.121212121212121h-12.121212121212121zM96.96969696969697,72.72727272727272h12.121212121212121v12.121212121212121h-12.121212121212121zM121.21212121212122,72.72727272727272h12.121212121212121v12.121212121212121h-12.121212121212121zM145.45454545454544,72.72727272727272h12.121212121212121v12.121212121212121h-12.121212121212121zM169.6969696969697,72.72727272727272h12.121212121212121v12.121212121212121h-12.121212121212121zM193.93939393939394,72.72727272727272h12.121212121212121v12.121212121212121h-12.121212121212121zM206.06060606060606,72.72727272727272h12.121212121212121v12.121212121212121h-12.121212121212121zM218.1818181818182,72.72727272727272h12.121212121212121v12.121212121212121h-12.121212121212121zM230.3030303030303,72.72727272727272h12.121212121212121v12.121212121212121h-12.121212121212121zM242.42424242424244,72.72727272727272h12.121212121212121v12.121212121212121h-12.121212121212121zM266.6666666666667,72.72727272727272h12.121212121212121v12.121212121212121h-12.121212121212121zM290.9090909090909,72.72727272727272h12.121212121212121v12.121212121212121h-12.121212121212121zM303.030303030303,72.72727272727272h12.121212121212121v12.121212121212121h-12.121212121212121zM315.1515151515151,72.72727272727272h12.121212121212121v12.121212121212121h-12.121212121212121zM339.3939393939394,72.72727272727272h12.121212121212121v12.121212121212121h-12.121212121212121zM48.484848484848484,84.84848484848484h12.121212121212121v12.121212121212121h-12.121212121212121zM72.72727272727272,84.84848484848484h12.121212121212121v12.121212121212121h-12.121212121212121zM84.84848484848484,84.84848484848484h12.121212121212121v12.121212121212121h-12.121212121212121zM96.96969696969697,84.84848484848484h12.121212121212121v12.121212121212121h-12.121212121212121zM121.21212121212122,84.84848484848484h12.121212121212121v12.121212121212121h-12.121212121212121zM169.6969696969697,84.84848484848484h12.121212121212121v12.121212121212121h-12.121212121212121zM193.93939393939394,84.84848484848484h12.121212121212121v12.121212121212121h-12.121212121212121zM206.06060606060606,84.84848484848484h12.121212121212121v12.121212121212121h-12.121212121212121zM230.3030303030303,84.84848484848484h12.121212121212121v12.121212121212121h-12.121212121212121zM242.42424242424244,84.84848484848484h12.121212121212121v12.121212121212121h-12.121212121212121zM266.6666666666667,84.84848484848484h12.121212121212121v12.121212121212121h-12.121212121212121zM290.9090909090909,84.84848484848484h12.121212121212121v12.121212121212121h-12.121212121212121zM303.030303030303,84.84848484848484h12.121212121212121v12.121212121212121h-12.121212121212121zM315.1515151515151,84.84848484848484h12.121212121212121v12.121212121212121h-12.121212121212121zM339.3939393939394,84.84848484848484h12.121212121212121v12.121212121212121h-12.121212121212121zM48.484848484848484,96.96969696969697h12.121212121212121v12.121212121212121h-12.121212121212121zM72.72727272727272,96.96969696969697h12.121212121212121v12.121212121212121h-12.121212121212121zM84.84848484848484,96.96969696969697h12.121212121212121v12.121212121212121h-12.121212121212121zM96.96969696969697,96.96969696969697h12.121212121212121v12.121212121212121h-12.121212121212121zM121.21212121212122,96.96969696969697h12.121212121212121v12.121212121212121h-12.121212121212121zM157.57575757575756,96.96969696969697h12.121212121212121v12.121212121212121h-12.121212121212121zM193.93939393939394,96.96969696969697h12.121212121212121v12.121212121212121h-12.121212121212121zM230.3030303030303,96.96969696969697h12.121212121212121v12.121212121212121h-12.121212121212121zM266.6666666666667,96.96969696969697h12.121212121212121v12.121212121212121h-12.121212121212121zM290.9090909090909,96.96969696969697h12.121212121212121v12.121212121212121h-12.121212121212121zM303.030303030303,96.96969696969697h12.121212121212121v12.121212121212121h-12.121212121212121zM315.1515151515151,96.96969696969697h12.121212121212121v12.121212121212121h-12.121212121212121zM339.3939393939394,96.96969696969697h12.121212121212121v12.121212121212121h-12.121212121212121zM48.484848484848484,109.0909090909091h12.121212121212121v12.121212121212121h-12.121212121212121zM121.21212121212122,109.0909090909091h12.121212121212121v12.121212121212121h-12.121212121212121zM145.45454545454544,109.0909090909091h12.121212121212121v12.121212121212121h-12.121212121212121zM181.8181818181818,109.0909090909091h12.121212121212121v12.121212121212121h-12.121212121212121zM193.93939393939394,109.0909090909091h12.121212121212121v12.121212121212121h-12.121212121212121zM218.1818181818182,109.0909090909091h12.121212121212121v12.121212121212121h-12.121212121212121zM266.6666666666667,109.0909090909091h12.121212121212121v12.121212121212121h-12.121212121212121zM339.3939393939394,109.0909090909091h12.121212121212121v12.121212121212121h-12.121212121212121zM48.484848484848484,121.21212121212122h12.121212121212121v12.121212121212121h-12.121212121212121zM60.60606060606061,121.21212121212122h12.121212121212121v12.121212121212121h-12.121212121212121zM72.72727272727272,121.21212121212122h12.121212121212121v12.121212121212121h-12.121212121212121zM84.84848484848484,121.21212121212122h12.121212121212121v12.121212121212121h-12.121212121212121zM96.96969696969697,121.21212121212122h12.121212121212121v12.121212121212121h-12.121212121212121zM109.0909090909091,121.21212121212122h12.121212121212121v12.121212121212121h-12.121212121212121zM121.21212121212122,121.21212121212122h12.121212121212121v12.121212121212121h-12.121212121212121zM145.45454545454544,121.21212121212122h12.121212121212121v12.121212121212121h-12.121212121212121zM169.6969696969697,121.21212121212122h12.121212121212121v12.121212121212121h-12.121212121212121zM193.93939393939394,121.21212121212122h12.121212121212121v12.121212121212121h-12.121212121212121zM218.1818181818182,121.21212121212122h12.121212121212121v12.121212121212121h-12.121212121212121zM242.42424242424244,121.21212121212122h12.121212121212121v12.121212121212121h-12.121212121212121zM266.6666666666667,121.21212121212122h12.121212121212121v12.121212121212121h-12.121212121212121zM278.7878787878788,121.21212121212122h12.121212121212121v12.121212121212121h-12.121212121212121zM290.9090909090909,121.21212121212122h12.121212121212121v12.121212121212121h-12.121212121212121zM303.030303030303,121.21212121212122h12.121212121212121v12.121212121212121h-12.121212121212121zM315.1515151515151,121.21212121212122h12.121212121212121v12.121212121212121h-12.121212121212121zM327.27272727272725,121.21212121212122h12.121212121212121v12.121212121212121h-12.121212121212121zM339.3939393939394,121.21212121212122h12.121212121212121v12.121212121212121h-12.121212121212121zM169.6969696969697,133.33333333333334h12.121212121212121v12.121212121212121h-12.121212121212121zM193.93939393939394,133.33333333333334h12.121212121212121v12.121212121212121h-12.121212121212121zM206.06060606060606,133.33333333333334h12.121212121212121v12.121212121212121h-12.121212121212121zM218.1818181818182,133.33333333333334h12.121212121212121v12.121212121212121h-12.121212121212121zM230.3030303030303,133.33333333333334h12.121212121212121v12.121212121212121h-12.121212121212121zM48.484848484848484,145.45454545454544h12.121212121212121v12.121212121212121h-12.121212121212121zM72.72727272727272,145.45454545454544h12.121212121212121v12.121212121212121h-12.121212121212121zM121.21212121212122,145.45454545454544h12.121212121212121v12.121212121212121h-12.121212121212121zM133.33333333333334,145.45454545454544h12.121212121212121v12.121212121212121h-12.121212121212121zM157.57575757575756,145.45454545454544h12.121212121212121v12.121212121212121h-12.121212121212121zM169.6969696969697,145.45454545454544h12.121212121212121v12.121212121212121h-12.121212121212121zM206.06060606060606,145.45454545454544h12.121212121212121v12.121212121212121h-12.121212121212121zM218.1818181818182,145.45454545454544h12.121212121212121v12.121212121212121h-12.121212121212121zM242.42424242424244,145.45454545454544h12.121212121212121v12.121212121212121h-12.121212121212121zM266.6666666666667,145.45454545454544h12.121212121212121v12.121212121212121h-12.121212121212121zM315.1515151515151,145.45454545454544h12.121212121212121v12.121212121212121h-12.121212121212121zM339.3939393939394,145.45454545454544h12.121212121212121v12.121212121212121h-12.121212121212121zM60.60606060606061,157.57575757575756h12.121212121212121v12.121212121212121h-12.121212121212121zM84.84848484848484,157.57575757575756h12.121212121212121v12.121212121212121h-12.121212121212121zM96.96969696969697,157.57575757575756h12.121212121212121v12.121212121212121h-12.121212121212121zM109.0909090909091,157.57575757575756h12.121212121212121v12.121212121212121h-12.121212121212121zM145.45454545454544,157.57575757575756h12.121212121212121v12.121212121212121h-12.121212121212121zM157.57575757575756,157.57575757575756h12.121212121212121v12.121212121212121h-12.121212121212121zM242.42424242424244,157.57575757575756h12.121212121212121v12.121212121212121h-12.121212121212121zM290.9090909090909,157.57575757575756h12.121212121212121v12.121212121212121h-12.121212121212121zM303.030303030303,157.57575757575756h12.121212121212121v12.121212121212121h-12.121212121212121zM327.27272727272725,157.57575757575756h12.121212121212121v12.121212121212121h-12.121212121212121zM339.3939393939394,157.57575757575756h12.121212121212121v12.121212121212121h-12.121212121212121zM48.484848484848484,169.6969696969697h12.121212121212121v12.121212121212121h-12.121212121212121zM96.96969696969697,169.6969696969697h12.121212121212121v12.121212121212121h-12.121212121212121zM109.0909090909091,169.6969696969697h12.121212121212121v12.121212121212121h-12.121212121212121zM121.21212121212122,169.6969696969697h12.121212121212121v12.121212121212121h-12.121212121212121zM145.45454545454544,169.6969696969697h12.121212121212121v12.121212121212121h-12.121212121212121zM157.57575757575756,169.6969696969697h12.121212121212121v12.121212121212121h-12.121212121212121zM181.8181818181818,169.6969696969697h12.121212121212121v12.121212121212121h-12.121212121212121zM193.93939393939394,169.6969696969697h12.121212121212121v12.121212121212121h-12.121212121212121zM218.1818181818182,169.6969696969697h12.121212121212121v12.121212121212121h-12.121212121212121zM242.42424242424244,169.6969696969697h12.121212121212121v12.121212121212121h-12.121212121212121zM266.6666666666667,169.6969696969697h12.121212121212121v12.121212121212121h-12.121212121212121zM290.9090909090909,169.6969696969697h12.121212121212121v12.121212121212121h-12.121212121212121zM303.030303030303,169.6969696969697h12.121212121212121v12.121212121212121h-12.121212121212121zM315.1515151515151,169.6969696969697h12.121212121212121v12.121212121212121h-12.121212121212121zM339.3939393939394,169.6969696969697h12.121212121212121v12.121212121212121h-12.121212121212121zM60.60606060606061,181.8181818181818h12.121212121212121v12.121212121212121h-12.121212121212121zM72.72727272727272,181.8181818181818h12.121212121212121v12.121212121212121h-12.121212121212121zM133.33333333333334,181.8181818181818h12.121212121212121v12.121212121212121h-12.121212121212121zM157.57575757575756,181.8181818181818h12.121212121212121v12.121212121212121h-12.121212121212121zM169.6969696969697,181.8181818181818h12.121212121212121v12.121212121212121h-12.121212121212121zM230.3030303030303,181.8181818181818h12.121212121212121v12.121212121212121h-12.121212121212121zM242.42424242424244,181.8181818181818h12.121212121212121v12.121212121212121h-12.121212121212121zM254.54545454545453,181.8181818181818h12.121212121212121v12.121212121212121h-12.121212121212121zM303.030303030303,181.8181818181818h12.121212121212121v12.121212121212121h-12.121212121212121zM48.484848484848484,193.93939393939394h12.121212121212121v12.121212121212121h-12.121212121212121zM60.60606060606061,193.93939393939394h12.121212121212121v12.121212121212121h-12.121212121212121zM72.72727272727272,193.93939393939394h12.121212121212121v12.121212121212121h-12.121212121212121zM96.96969696969697,193.93939393939394h12.121212121212121v12.121212121212121h-12.121212121212121zM109.0909090909091,193.93939393939394h12.121212121212121v12.121212121212121h-12.121212121212121zM121.21212121212122,193.93939393939394h12.121212121212121v12.121212121212121h-12.121212121212121zM145.45454545454544,193.93939393939394h12.121212121212121v12.121212121212121h-12.121212121212121zM181.8181818181818,193.93939393939394h12.121212121212121v12.121212121212121h-12.121212121212121zM193.93939393939394,193.93939393939394h12.121212121212121v12.121212121212121h-12.121212121212121zM218.1818181818182,193.93939393939394h12.121212121212121v12.121212121212121h-12.121212121212121zM254.54545454545453,193.93939393939394h12.121212121212121v12.121212121212121h-12.121212121212121zM278.7878787878788,193.93939393939394h12.121212121212121v12.121212121212121h-12.121212121212121zM339.3939393939394,193.93939393939394h12.121212121212121v12.121212121212121h-12.121212121212121zM84.84848484848484,206.06060606060606h12.121212121212121v12.121212121212121h-12.121212121212121zM96.96969696969697,206.06060606060606h12.121212121212121v12.121212121212121h-12.121212121212121zM109.0909090909091,206.06060606060606h12.121212121212121v12.121212121212121h-12.121212121212121zM133.33333333333334,206.06060606060606h12.121212121212121v12.121212121212121h-12.121212121212121zM145.45454545454544,206.06060606060606h12.121212121212121v12.121212121212121h-12.121212121212121zM157.57575757575756,206.06060606060606h12.121212121212121v12.121212121212121h-12.121212121212121zM169.6969696969697,206.06060606060606h12.121212121212121v12.121212121212121h-12.121212121212121zM181.8181818181818,206.06060606060606h12.121212121212121v12.121212121212121h-12.121212121212121zM206.06060606060606,206.06060606060606h12.121212121212121v12.121212121212121h-12.121212121212121zM218.1818181818182,206.06060606060606h12.121212121212121v12.121212121212121h-12.121212121212121zM242.42424242424244,206.06060606060606h12.121212121212121v12.121212121212121h-12.121212121212121zM254.54545454545453,206.06060606060606h12.121212121212121v12.121212121212121h-12.121212121212121zM266.6666666666667,206.06060606060606h12.121212121212121v12.121212121212121h-12.121212121212121zM278.7878787878788,206.06060606060606h12.121212121212121v12.121212121212121h-12.121212121212121zM290.9090909090909,206.06060606060606h12.121212121212121v12.121212121212121h-12.121212121212121zM327.27272727272725,206.06060606060606h12.121212121212121v12.121212121212121h-12.121212121212121zM339.3939393939394,206.06060606060606h12.121212121212121v12.121212121212121h-12.121212121212121zM48.484848484848484,218.1818181818182h12.121212121212121v12.121212121212121h-12.121212121212121zM60.60606060606061,218.1818181818182h12.121212121212121v12.121212121212121h-12.121212121212121zM72.72727272727272,218.1818181818182h12.121212121212121v12.121212121212121h-12.121212121212121zM109.0909090909091,218.1818181818182h12.121212121212121v12.121212121212121h-12.121212121212121zM121.21212121212122,218.1818181818182h12.121212121212121v12.121212121212121h-12.121212121212121zM169.6969696969697,218.1818181818182h12.121212121212121v12.121212121212121h-12.121212121212121zM193.93939393939394,218.1818181818182h12.121212121212121v12.121212121212121h-12.121212121212121zM206.06060606060606,218.1818181818182h12.121212121212121v12.121212121212121h-12.121212121212121zM242.42424242424244,218.1818181818182h12.121212121212121v12.121212121212121h-12.121212121212121zM266.6666666666667,218.1818181818182h12.121212121212121v12.121212121212121h-12.121212121212121zM290.9090909090909,218.1818181818182h12.121212121212121v12.121212121212121h-12.121212121212121zM303.030303030303,218.1818181818182h12.121212121212121v12.121212121212121h-12.121212121212121zM315.1515151515151,218.1818181818182h12.121212121212121v12.121212121212121h-12.121212121212121zM339.3939393939394,218.1818181818182h12.121212121212121v12.121212121212121h-12.121212121212121zM96.96969696969697,230.3030303030303h12.121212121212121v12.121212121212121h-12.121212121212121zM145.45454545454544,230.3030303030303h12.121212121212121v12.121212121212121h-12.121212121212121zM206.06060606060606,230.3030303030303h12.121212121212121v12.121212121212121h-12.121212121212121zM218.1818181818182,230.3030303030303h12.121212121212121v12.121212121212121h-12.121212121212121zM230.3030303030303,230.3030303030303h12.121212121212121v12.121212121212121h-12.121212121212121zM242.42424242424244,230.3030303030303h12.121212121212121v12.121212121212121h-12.121212121212121zM254.54545454545453,230.3030303030303h12.121212121212121v12.121212121212121h-12.121212121212121zM278.7878787878788,230.3030303030303h12.121212121212121v12.121212121212121h-12.121212121212121zM303.030303030303,230.3030303030303h12.121212121212121v12.121212121212121h-12.121212121212121zM84.84848484848484,242.42424242424244h12.121212121212121v12.121212121212121h-12.121212121212121zM96.96969696969697,242.42424242424244h12.121212121212121v12.121212121212121h-12.121212121212121zM121.21212121212122,242.42424242424244h12.121212121212121v12.121212121212121h-12.121212121212121zM181.8181818181818,242.42424242424244h12.121212121212121v12.121212121212121h-12.121212121212121zM206.06060606060606,242.42424242424244h12.121212121212121v12.121212121212121h-12.121212121212121zM218.1818181818182,242.42424242424244h12.121212121212121v12.121212121212121h-12.121212121212121zM230.3030303030303,242.42424242424244h12.121212121212121v12.121212121212121h-12.121212121212121zM242.42424242424244,242.42424242424244h12.121212121212121v12.121212121212121h-12.121212121212121zM290.9090909090909,242.42424242424244h12.121212121212121v12.121212121212121h-12.121212121212121zM327.27272727272725,242.42424242424244h12.121212121212121v12.121212121212121h-12.121212121212121zM145.45454545454544,254.54545454545453h12.121212121212121v12.121212121212121h-12.121212121212121zM157.57575757575756,254.54545454545453h12.121212121212121v12.121212121212121h-12.121212121212121zM181.8181818181818,254.54545454545453h12.121212121212121v12.121212121212121h-12.121212121212121zM242.42424242424244,254.54545454545453h12.121212121212121v12.121212121212121h-12.121212121212121zM290.9090909090909,254.54545454545453h12.121212121212121v12.121212121212121h-12.121212121212121zM339.3939393939394,254.54545454545453h12.121212121212121v12.121212121212121h-12.121212121212121zM48.484848484848484,266.6666666666667h12.121212121212121v12.121212121212121h-12.121212121212121zM60.60606060606061,266.6666666666667h12.121212121212121v12.121212121212121h-12.121212121212121zM72.72727272727272,266.6666666666667h12.121212121212121v12.121212121212121h-12.121212121212121zM84.84848484848484,266.6666666666667h12.121212121212121v12.121212121212121h-12.121212121212121zM96.96969696969697,266.6666666666667h12.121212121212121v12.121212121212121h-12.121212121212121zM109.0909090909091,266.6666666666667h12.121212121212121v12.121212121212121h-12.121212121212121zM121.21212121212122,266.6666666666667h12.121212121212121v12.121212121212121h-12.121212121212121zM157.57575757575756,266.6666666666667h12.121212121212121v12.121212121212121h-12.121212121212121zM169.6969696969697,266.6666666666667h12.121212121212121v12.121212121212121h-12.121212121212121zM193.93939393939394,266.6666666666667h12.121212121212121v12.121212121212121h-12.121212121212121zM218.1818181818182,266.6666666666667h12.121212121212121v12.121212121212121h-12.121212121212121zM242.42424242424244,266.6666666666667h12.121212121212121v12.121212121212121h-12.121212121212121zM254.54545454545453,266.6666666666667h12.121212121212121v12.121212121212121h-12.121212121212121zM266.6666666666667,266.6666666666667h12.121212121212121v12.121212121212121h-12.121212121212121zM290.9090909090909,266.6666666666667h12.121212121212121v12.121212121212121h-12.121212121212121zM339.3939393939394,266.6666666666667h12.121212121212121v12.121212121212121h-12.121212121212121zM48.484848484848484,278.7878787878788h12.121212121212121v12.121212121212121h-12.121212121212121zM121.21212121212122,278.7878787878788h12.121212121212121v12.121212121212121h-12.121212121212121zM145.45454545454544,278.7878787878788h12.121212121212121v12.121212121212121h-12.121212121212121zM242.42424242424244,278.7878787878788h12.121212121212121v12.121212121212121h-12.121212121212121zM254.54545454545453,278.7878787878788h12.121212121212121v12.121212121212121h-12.121212121212121zM278.7878787878788,278.7878787878788h12.121212121212121v12.121212121212121h-12.121212121212121zM290.9090909090909,278.7878787878788h12.121212121212121v12.121212121212121h-12.121212121212121zM327.27272727272725,278.7878787878788h12.121212121212121v12.121212121212121h-12.121212121212121zM339.3939393939394,278.7878787878788h12.121212121212121v12.121212121212121h-12.121212121212121zM48.484848484848484,290.9090909090909h12.121212121212121v12.121212121212121h-12.121212121212121zM72.72727272727272,290.9090909090909h12.121212121212121v12.121212121212121h-12.121212121212121zM84.84848484848484,290.9090909090909h12.121212121212121v12.121212121212121h-12.121212121212121zM96.96969696969697,290.9090909090909h12.121212121212121v12.121212121212121h-12.121212121212121zM121.21212121212122,290.9090909090909h12.121212121212121v12.121212121212121h-12.121212121212121zM169.6969696969697,290.9090909090909h12.121212121212121v12.121212121212121h-12.121212121212121zM193.93939393939394,290.9090909090909h12.121212121212121v12.121212121212121h-12.121212121212121zM218.1818181818182,290.9090909090909h12.121212121212121v12.121212121212121h-12.121212121212121zM254.54545454545453,290.9090909090909h12.121212121212121v12.121212121212121h-12.121212121212121zM327.27272727272725,290.9090909090909h12.121212121212121v12.121212121212121h-12.121212121212121zM339.3939393939394,290.9090909090909h12.121212121212121v12.121212121212121h-12.121212121212121zM48.484848484848484,303.030303030303h12.121212121212121v12.121212121212121h-12.121212121212121zM72.72727272727272,303.030303030303h12.121212121212121v12.121212121212121h-12.121212121212121zM84.84848484848484,303.030303030303h12.121212121212121v12.121212121212121h-12.121212121212121zM96.96969696969697,303.030303030303h12.121212121212121v12.121212121212121h-12.121212121212121zM121.21212121212122,303.030303030303h12.121212121212121v12.121212121212121h-12.121212121212121zM169.6969696969697,303.030303030303h12.121212121212121v12.121212121212121h-12.121212121212121zM193.93939393939394,303.030303030303h12.121212121212121v12.121212121212121h-12.121212121212121zM206.06060606060606,303.030303030303h12.121212121212121v12.121212121212121h-12.121212121212121zM218.1818181818182,303.030303030303h12.121212121212121v12.121212121212121h-12.121212121212121zM242.42424242424244,303.030303030303h12.121212121212121v12.121212121212121h-12.121212121212121zM254.54545454545453,303.030303030303h12.121212121212121v12.121212121212121h-12.121212121212121zM266.6666666666667,303.030303030303h12.121212121212121v12.121212121212121h-12.121212121212121zM290.9090909090909,303.030303030303h12.121212121212121v12.121212121212121h-12.121212121212121zM315.1515151515151,303.030303030303h12.121212121212121v12.121212121212121h-12.121212121212121zM327.27272727272725,303.030303030303h12.121212121212121v12.121212121212121h-12.121212121212121zM48.484848484848484,315.1515151515151h12.121212121212121v12.121212121212121h-12.121212121212121zM72.72727272727272,315.1515151515151h12.121212121212121v12.121212121212121h-12.121212121212121zM84.84848484848484,315.1515151515151h12.121212121212121v12.121212121212121h-12.121212121212121zM96.96969696969697,315.1515151515151h12.121212121212121v12.121212121212121h-12.121212121212121zM121.21212121212122,315.1515151515151h12.121212121212121v12.121212121212121h-12.121212121212121zM145.45454545454544,315.1515151515151h12.121212121212121v12.121212121212121h-12.121212121212121zM157.57575757575756,315.1515151515151h12.121212121212121v12.121212121212121h-12.121212121212121zM169.6969696969697,315.1515151515151h12.121212121212121v12.121212121212121h-12.121212121212121zM193.93939393939394,315.1515151515151h12.121212121212121v12.121212121212121h-12.121212121212121zM206.06060606060606,315.1515151515151h12.121212121212121v12.121212121212121h-12.121212121212121zM230.3030303030303,315.1515151515151h12.121212121212121v12.121212121212121h-12.121212121212121zM242.42424242424244,315.1515151515151h12.121212121212121v12.121212121212121h-12.121212121212121zM254.54545454545453,315.1515151515151h12.121212121212121v12.121212121212121h-12.121212121212121zM266.6666666666667,315.1515151515151h12.121212121212121v12.121212121212121h-12.121212121212121zM278.7878787878788,315.1515151515151h12.121212121212121v12.121212121212121h-12.121212121212121zM290.9090909090909,315.1515151515151h12.121212121212121v12.121212121212121h-12.121212121212121zM303.030303030303,315.1515151515151h12.121212121212121v12.121212121212121h-12.121212121212121zM327.27272727272725,315.1515151515151h12.121212121212121v12.121212121212121h-12.121212121212121zM339.3939393939394,315.1515151515151h12.121212121212121v12.121212121212121h-12.121212121212121zM48.484848484848484,327.27272727272725h12.121212121212121v12.121212121212121h-12.121212121212121zM121.21212121212122,327.27272727272725h12.121212121212121v12.121212121212121h-12.121212121212121zM193.93939393939394,327.27272727272725h12.121212121212121v12.121212121212121h-12.121212121212121zM206.06060606060606,327.27272727272725h12.121212121212121v12.121212121212121h-12.121212121212121zM218.1818181818182,327.27272727272725h12.121212121212121v12.121212121212121h-12.121212121212121zM230.3030303030303,327.27272727272725h12.121212121212121v12.121212121212121h-12.121212121212121zM254.54545454545453,327.27272727272725h12.121212121212121v12.121212121212121h-12.121212121212121zM278.7878787878788,327.27272727272725h12.121212121212121v12.121212121212121h-12.121212121212121zM290.9090909090909,327.27272727272725h12.121212121212121v12.121212121212121h-12.121212121212121zM48.484848484848484,339.3939393939394h12.121212121212121v12.121212121212121h-12.121212121212121zM60.60606060606061,339.3939393939394h12.121212121212121v12.121212121212121h-12.121212121212121zM72.72727272727272,339.3939393939394h12.121212121212121v12.121212121212121h-12.121212121212121zM84.84848484848484,339.3939393939394h12.121212121212121v12.121212121212121h-12.121212121212121zM96.96969696969697,339.3939393939394h12.121212121212121v12.121212121212121h-12.121212121212121zM109.0909090909091,339.3939393939394h12.121212121212121v12.121212121212121h-12.121212121212121zM121.21212121212122,339.3939393939394h12.121212121212121v12.121212121212121h-12.121212121212121zM145.45454545454544,339.3939393939394h12.121212121212121v12.121212121212121h-12.121212121212121zM169.6969696969697,339.3939393939394h12.121212121212121v12.121212121212121h-12.121212121212121zM206.06060606060606,339.3939393939394h12.121212121212121v12.121212121212121h-12.121212121212121zM218.1818181818182,339.3939393939394h12.121212121212121v12.121212121212121h-12.121212121212121zM242.42424242424244,339.3939393939394h12.121212121212121v12.121212121212121h-12.121212121212121zM254.54545454545453,339.3939393939394h12.121212121212121v12.121212121212121h-12.121212121212121zM303.030303030303,339.3939393939394h12.121212121212121v12.121212121212121h-12.121212121212121zM339.3939393939394,339.3939393939394h12.121212121212121v12.121212121212121h-12.121212121212121z"/></svg>