<svg xmlns="http://www.w3.org/2000/svg" viewBox="0 0 400 400" width="400" height="400"><rect width="400" height="400" fill="#ffffff"/><rect x="48.484848484848484" y="48.484848484848484" width="12.121212121212121" height="12.121212121212121" fill="#000000"/><rect x="60.60606060606061" y="48.484848484848484" width="12.121212121212121" height="12.121212121212121" fill="#000000"/><rect x="72.72727272727272" y="48.484848484848484" width="12.121212121212121" height="12.121212121212121" fill="#000000"/><rect x="84.84848484848484" y="48.484848484848484" width="12.121212121212121" height="12.121212121212121" fill="#000000"/><rect x="96.96969696969697" y="48.484848484848484" width="12.121212121212121" height="12.121212121212121" fill="#000000"/><rect x="109.0909090909091" y="48.484848484848484" width="12.121212121212121" height="12.121212121212121" fill="#000000"/><rect x="121.21212121212122" y="48.484848484848484" width="12.121212121212121" height="12.121212121212121" fill="#000000"/><circle cx="151.5151515151515" cy="54.54545454545455" r="5.454545454545455" fill="#000000"/><circle cx="175.75757575757575" cy="54.54545454545455" r="5.454545454545455" fill="#000000"/><circle cx="187.87878787878788" cy="54.54545454545455" r="5.454545454545455" fill="#000000"/><circle cx="212.12121212121212" cy="54.54545454545455" r="5.454545454545455" fill="#000000"/><circle cx="224.24242424242425" cy="54.54545454545455" r="5.454545454545455" fill="#000000"/><circle cx="236.36363636363637" cy="54.54545454545455" r="5.454545454545455" fill="#000000"/><rect x="266.6666666666667" y="48.484848484848484" width="12.121212121212121" height="12.121212121212121" fill="#000000"/><rect x="278.7878787878788" y="48.484848484848484" width="12.121212121212121" height="12.121212121212121" fill="#000000"/><rect x="290.9090909090909" y="48.484848484848484" width="12.121212121212121" height="12.121212121212121" fill="#000000"/><rect x="303.030303030303" y="48.484848484848484" width="12.121212121212121" height="12.121212121212121" fill="#000000"/><rect x="315.1515151515151" y="48.484848484848484" width="12.121212121212121" height="12.121212121212121" fill="#000000"/><rect x="327.27272727272725" y="48.484848484848484" width="12.121212121212121" height="12.121212121212121" fill="#000000"/><rect x="339.3939393939394" y="48.484848484848484" width="12.121212121212121" height="12.121212121212121" fill="#000000"/><rect x="48.484848484848484" y="60.60606060606061" width="12.121212121212121" height="12.121212121212121" fill="#000000"/><rect x="121.21212121212122" y="60.60606060606061" width="12.121212121212121" height="12.121212121212121" fill="#000000"/><circle cx="163.63636363636363" cy="66.66666666666667" r="5.454545454545455" fill="#000000"/><circle cx="175.75757575757575" cy="66.66666666666667" r="5.454545454545455" fill="#000000"/><circle cx="187.87878787878788" cy="66.66666666666667" r="5.454545454545455" fill="#000000"/><circle cx="200" cy="66.66666666666667" r="5.454545454545455" fill="#000000"/><circle cx="212.12121212121212" cy="66.66666666666667" r="5.454545454545455" fill="#000000"/><circle cx="236.36363636363637" cy="66.66666666666667" r="5.454545454545455" fill="#000000"/><circle cx="248.48484848484847" cy="66.66666666666667" r="5.454545454545455" fill="#000000"/><rect x="266.6666666666667" y="60.60606060606061" width="12.121212121212121" height="12.121212121212121" fill="#000000"/><rect x="339.3939393939394" y="60.60606060606061" width="12.121212121212121" height="12.121212121212121" fill="#000000"/><rect x="48.484848484848484" y="72.72727272727272" width="12.121212121212121" height="12.121212121212121" fill="#000000"/><rect x="72.72727272727272" y="72.72727272727272" width="12.121212121212121" height="12.121212121212121" fill="#000000"/><rect x="84.84848484848484" y="72.72727272727272" width="12.121212121212121" height="12.121212121212121" fill="#000000"/><rect x="96.96969696969697" y="72.72727272727272" width="12.121212121212121" height="12.121212121212121" fill="#000000"/><rect x="121.21212121212122" y="72.72727272727272" width="12.121212121212121" height="12.121212121212121" fill="#000000"/><circle cx="151.5151515151515" cy="78.78787878787878" r="5.454545454545455" fill="#000000"/><circle cx="175.75757575757575" cy="78.78787878787878" r="5.454545454545455" fill="#000000"/><circle cx="200" cy="78.78787878787878" r="5.454545454545455" fill="#000000"/><circle cx="212.12121212121212" cy="78.78787878787878" r="5.454545454545455" fill="#000000"/><circle cx="224.24242424242425" cy="78.78787878787878" r="5.454545454545455" fill="#000000"/><circle cx="236.36363636363637" cy="78.78787878787878" r="5.454545454545455" fill="#000000"/><circle cx="248.48484848484847" cy="78.78787878787878" r="5.454545454545455" fill="#000000"/><rect x="266.6666666666667" y="72.72727272727272" width="12.121212121212121" height="12.121212121212121" fill="#000000"/><rect x="290.9090909090909" y="72.72727272727272" width="12.121212121212121" height="12.121212121212121" fill="#000000"/><rect x="303.030303030303" y="72.72727272727272" width="12.121212121212121" height="12.121212121212121" fill="#000000"/><rect x="315.1515151515151" y="72.72727272727272" width="12.121212121212121" height="12.121212121212121" fill="#000000"/><rect x="339.3939393939394" y="72.72727272727272" width="12.121212121212121" height="12.121212121212121" fill="#000000"/><rect x="48.484848484848484" y="84.84848484848484" width="12.121212121212121" height="12.121212121212121" fill="#000000"/><rect x="72.72727272727272" y="84.84848484848484" width="12.121212121212121" height="12.121212121212121" fill="#000000"/><rect x="84.84848484848484" y="84.84848484848484" width="12.121212121212121" height="12.121212121212121" fill="#000000"/><rect x="96.96969696969697" y="84.84848484848484" width="12.121212121212121" height="12.121212121212121" fill="#000000"/><rect x="121.21212121212122" y="84.84848484848484" width="12.121212121212121" height="12.121212121212121" fill="#000000"/><circle cx="175.75757575757575" cy="90.9090909090909" r="5.454545454545455" fill="#000000"/><circle cx="200" cy="90.9090909090909" r="5.454545454545455" fill="#000000"/><circle cx="212.12121212121212" cy="90.9090909090909" r="5.454545454545455" fill="#000000"/><circle cx="236.36363636363637" cy="90.9090909090909" r="5.454545454545455" fill="#000000"/><circle cx="248.48484848484847" cy="90.9090909090909" r="5.454545454545455" fill="#000000"/><rect x="266.6666666666667" y="84.84848484848484" width="12.121212121212121" height="12.121212121212121" fill="#000000"/><rect x="290.9090909090909" y="84.84848484848484" width="12.121212121212121" height="12.121212121212121" fill="#000000"/><rect x="303.030303030303" y="84.84848484848484" width="12.121212121212121" height="12.121212121212121" fill="#000000"/><rect x="315.1515151515151" y="84.84848484848484" width="12.121212121212121" height="12.121212121212121" fill="#000000"/><rect x="339.3939393939394" y="84.84848484848484" width="12.121212121212121" height="12.121212121212121" fill="#000000"/><rect x="48.484848484848484" y="96.96969696969697" width="12.121212121212121" height="12.121212121212121" fill="#000000"/><rect x="72.72727272727272" y="96.96969696969697" width="12.121212121212121" height="12.121212121212121" fill="#000000"/><rect x="84.84848484848484" y="96.96969696969697" width="12.121212121212121" height="12.121212121212121" fill="#000000"/><rect x="96.96969696969697" y="96.96969696969697" width="12.121212121212121" height="12.121212121212121" fill="#000000"/><rect x="121.21212121212122" y="96.96969696969697" width="12.121212121212121" height="12.121212121212121" fill="#000000"/><circle cx="163.63636363636363" cy="103.03030303030303" r="5.454545454545455" fill="#000000"/><circle cx="200" cy="103.03030303030303" r="5.454545454545455" fill="#000000"/><circle cx="236.36363636363637" cy="103.03030303030303" r="5.454545454545455" fill="#000000"/><rect x="266.6666666666667" y="96.96969696969697" width="12.121212121212121" height="12.121212121212121" fill="#000000"/><rect x="290.9090909090909" y="96.96969696969697" width="12.121212121212121" height="12.121212121212121" fill="#000000"/><rect x="303.030303030303" y="96.96969696969697" width="12.121212121212121" height="12.121212121212121" fill="#000000"/><rect x="315.1515151515151" y="96.96969696969697" width="12.121212121212121" height="12.121212121212121" fill="#000000"/><rect x="339.3939393939394" y="96.96969696969697" width="12.121212121212121" height="12.121212121212121" fill="#000000"/><rect x="48.484848484848484" y="109.0909090909091" width="12.121212121212121" height="12.121212121212121" fill="#000000"/><rect x="121.21212121212122" y="109.0909090909091" width="12.121212121212121" height="12.121212121212121" fill="#000000"/><circle cx="151.5151515151515" cy="115.15151515151516" r="5.454545454545455" fill="#000000"/><circle cx="187.87878787878788" cy="115.15151515151516" r="5.454545454545455" fill="#000000"/><circle cx="200" cy="115.15151515151516" r="5.454545454545455" fill="#000000"/><circle cx="224.24242424242425" cy="115.15151515151516" r="5.454545454545455" fill="#000000"/><rect x="266.6666666666667" y="109.0909090909091" width="12.121212121212121" height="12.121212121212121" fill="#000000"/><rect x="339.3939393939394" y="109.0909090909091" width="12.121212121212121" height="12.121212121212121" fill="#000000"/><rect x="48.484848484848484" y="121.21212121212122" width="12.121212121212121" height="12.121212121212121" fill="#000000"/><rect x="60.60606060606061" y="121.21212121212122" width="12.121212121212121" height="12.121212121212121" fill="#000000"/><rect x="72.72727272727272" y="121.21212121212122" width="12.121212121212121" height="12.121212121212121" fill="#000000"/><rect x="84.84848484848484" y="121.21212121212122" width="12.121212121212121" height="12.121212121212121" fill="#000000"/><rect x="96.96969696969697" y="121.21212121212122" width="12.121212121212121" height="12.121212121212121" fill="#000000"/><rect x="109.0909090909091" y="121.21212121212122" width="12.121212121212121" height="12.121212121212121" fill="#000000"/><rect x="121.21212121212122" y="121.21212121212122" width="12.121212121212121" height="12.121212121212121" fill="#000000"/><circle cx="151.5151515151515" cy="127.27272727272727" r="5.454545454545455" fill="#000000"/><circle cx="175.75757575757575" cy="127.27272727272727" r="5.454545454545455" fill="#000000"/><circle cx="200" cy="127.27272727272727" r="5.454545454545455" fill="#000000"/><circle cx="224.24242424242425" cy="127.27272727272727" r="5.454545454545455" fill="#000000"/><circle cx="248.48484848484847" cy="127.27272727272727" r="5.454545454545455" fill="#000000"/><rect x="266.6666666666667" y="121.21212121212122" width="12.121212121212121" height="12.121212121212121" fill="#000000"/><rect x="278.7878787878788" y="121.21212121212122" width="12.121212121212121" height="12.121212121212121" fill="#000000"/><rect x="290.9090909090909" y="121.21212121212122" width="12.121212121212121" height="12.121212121212121" fill="#000000"/><rect x="303.030303030303" y="121.21212121212122" width="12.121212121212121" height="12.121212121212121" fill="#000000"/><rect x="315.1515151515151" y="121.21212121212122" width="12.121212121212121" height="12.121212121212121" fill="#000000"/><rect x="327.27272727272725" y="121.21212121212122" width="12.121212121212121" height="12.121212121212121" fill="#000000"/><rect x="339.3939393939394" y="121.21212121212122" width="12.121212121212121" height="12.121212121212121" fill="#000000"/><circle cx="175.75757575757575" cy="139.3939393939394" r="5.454545454545455" fill="#000000"/><circle cx="200" cy="139.3939393939394" r="5.454545454545455" fill="#000000"/><circle cx="212.12121212121212" cy="139.3939393939394" r="5.454545454545455" fill="#000000"/><circle cx="224.24242424242425" cy="139.3939393939394" r="5.454545454545455" fill="#000000"/><circle cx="236.36363636363637" cy="139.3939393939394" r="5.454545454545455" fill="#000000"/><circle cx="54.54545454545455" cy="151.5151515151515" r="5.454545454545455" fill="#000000"/><circle cx="78.78787878787878" cy="151.5151515151515" r="5.454545454545455" fill="#000000"/><circle cx="127.27272727272727" cy="151.5151515151515" r="5.454545454545455" fill="#000000"/><circle cx="139.3939393939394" cy="151.5151515151515" r="5.454545454545455" fill="#000000"/><circle cx="163.63636363636363" cy="151.5151515151515" r="5.454545454545455" fill="#000000"/><circle cx="175.75757575757575" cy="151.5151515151515" r="5.454545454545455" fill="#000000"/><circle cx="212.12121212121212" cy="151.5151515151515" r="5.454545454545455" fill="#000000"/><circle cx="224.24242424242425" cy="151.5151515151515" r="5.454545454545455" fill="#000000"/><circle cx="248.48484848484847" cy="151.5151515151515" r="5.454545454545455" fill="#000000"/><circle cx="272.72727272727275" cy="151.5151515151515" r="5.454545454545455" fill="#000000"/><circle cx="321.2121212121212" cy="151.5151515151515" r="5.454545454545455" fill="#000000"/><circle cx="345.45454545454544" cy="151.5151515151515" r="5.454545454545455" fill="#000000"/><circle cx="66.66666666666667" cy="163.63636363636363" r="5.454545454545455" fill="#000000"/><circle cx="90.9090909090909" cy="163.63636363636363" r="5.454545454545455" fill="#000000"/><circle cx="103.03030303030303" cy="163.63636363636363" r="5.454545454545455" fill="#000000"/><circle cx="115.15151515151516" cy="163.63636363636363" r="5.454545454545455" fill="#000000"/><circle cx="151.5151515151515" cy="163.63636363636363" r="5.454545454545455" fill="#000000"/><circle cx="163.63636363636363" cy="163.63636363636363" r="5.454545454545455" fill="#000000"/><circle cx="248.48484848484847" cy="163.63636363636363" r="5.454545454545455" fill="#000000"/><circle cx="296.96969696969694" cy="163.63636363636363" r="5.454545454545455" fill="#000000"/><circle cx="309.09090909090907" cy="163.63636363636363" r="5.454545454545455" fill="#000000"/><circle cx="333.3333333333333" cy="163.63636363636363" r="5.454545454545455" fill="#000000"/><circle cx="345.45454545454544" cy="163.63636363636363" r="5.454545454545455" fill="#000000"/><circle cx="54.54545454545455" cy="175.75757575757575" r="5.454545454545455" fill="#000000"/><circle cx="103.03030303030303" cy="175.75757575757575" r="5.454545454545455" fill="#000000"/><circle cx="115.15151515151516" cy="175.75757575757575" r="5.454545454545455" fill="#000000"/><circle cx="127.27272727272727" cy="175.75757575757575" r="5.454545454545455" fill="#000000"/><circle cx="151.5151515151515" cy="175.75757575757575" r="5.454545454545455" fill="#000000"/><circle cx="163.63636363636363" cy="175.75757575757575" r="5.454545454545455" fill="#000000"/><circle cx="187.87878787878788" cy="175.75757575757575" r="5.454545454545455" fill="#000000"/><circle cx="200" cy="175.75757575757575" r="5.454545454545455" fill="#000000"/><circle cx="224.24242424242425" cy="175.75757575757575" r="5.454545454545455" fill="#000000"/><circle cx="248.48484848484847" cy="175.75757575757575" r="5.454545454545455" fill="#000000"/><circle cx="272.72727272727275" cy="175.75757575757575" r="5.454545454545455" fill="#000000"/><circle cx="296.96969696969694" cy="175.75757575757575" r="5.454545454545455" fill="#000000"/><circle cx="309.09090909090907" cy="175.75757575757575" r="5.454545454545455" fill="#000000"/><circle cx="321.2121212121212" cy="175.75757575757575" r="5.454545454545455" fill="#000000"/><circle cx="345.45454545454544" cy="175.75757575757575" r="5.454545454545455" fill="#000000"/><circle cx="66.66666666666667" cy="187.87878787878788" r="5.454545454545455" fill="#000000"/><circle cx="78.78787878787878" cy="187.87878787878788" r="5.454545454545455" fill="#000000"/><circle cx="139.3939393939394" cy="187.87878787878788" r="5.454545454545455" fill="#000000"/><circle cx="163.63636363636363" cy="187.87878787878788" r="5.454545454545455" fill="#000000"/><circle cx="175.75757575757575" cy="187.87878787878788" r="5.454545454545455" fill="#000000"/><circle cx="236.36363636363637" cy="187.87878787878788" r="5.454545454545455" fill="#000000"/><circle cx="248.48484848484847" cy="187.87878787878788" r="5.454545454545455" fill="#000000"/><circle cx="260.6060606060606" cy="187.87878787878788" r="5.454545454545455" fill="#000000"/><circle cx="309.09090909090907" cy="187.87878787878788" r="5.454545454545455" fill="#000000"/><circle cx="54.54545454545455" cy="200" r="5.454545454545455" fill="#000000"/><circle cx="66.66666666666667" cy="200" r="5.454545454545455" fill="#000000"/><circle cx="78.78787878787878" cy="200" r="5.454545454545455" fill="#000000"/><circle cx="103.03030303030303" cy="200" r="5.454545454545455" fill="#000000"/><circle cx="115.15151515151516" cy="200" r="5.454545454545455" fill="#000000"/><circle cx="127.27272727272727" cy="200" r="5.454545454545455" fill="#000000"/><circle cx="151.5151515151515" cy="200" r="5.454545454545455" fill="#000000"/><circle cx="187.87878787878788" cy="200" r="5.454545454545455" fill="#000000"/><circle cx="200" cy="200" r="5.454545454545455" fill="#000000"/><circle cx="224.24242424242425" cy="200" r="5.454545454545455" fill="#000000"/><circle cx="260.6060606060606" cy="200" r="5.454545454545455" fill="#000000"/><circle cx="284.8484848484849" cy="200" r="5.454545454545455" fill="#000000"/><circle cx="345.45454545454544" cy="200" r="5.454545454545455" fill="#000000"/><circle cx="90.9090909090909" cy="212.12121212121212" r="5.454545454545455" fill="#000000"/><circle cx="103.03030303030303" cy="212.12121212121212" r="5.454545454545455" fill="#000000"/><circle cx="115.15151515151516" cy="212.12121212121212" r="5.454545454545455" fill="#000000"/><circle cx="139.3939393939394" cy="212.12121212121212" r="5.454545454545455" fill="#000000"/><circle cx="151.5151515151515" cy="212.12121212121212" r="5.454545454545455" fill="#000000"/><circle cx="163.63636363636363" cy="212.12121212121212" r="5.454545454545455" fill="#000000"/><circle cx="175.75757575757575" cy="212.12121212121212" r="5.454545454545455" fill="#000000"/><circle cx="187.87878787878788" cy="212.12121212121212" r="5.454545454545455" fill="#000000"/><circle cx="212.12121212121212" cy="212.12121212121212" r="5.454545454545455" fill="#000000"/><circle cx="224.24242424242425" cy="212.12121212121212" r="5.454545454545455" fill="#000000"/><circle cx="248.48484848484847" cy="212.12121212121212" r="5.454545454545455" fill="#000000"/><circle cx="260.6060606060606" cy="212.12121212121212" r="5.454545454545455" fill="#000000"/><circle cx="272.72727272727275" cy="212.12121212121212" r="5.454545454545455" fill="#000000"/><circle cx="284.8484848484849" cy="212.12121212121212" r="5.454545454545455" fill="#000000"/><circle cx="296.96969696969694" cy="212.12121212121212" r="5.454545454545455" fill="#000000"/><circle cx="333.3333333333333" cy="212.12121212121212" r="5.454545454545455" fill="#000000"/><circle cx="345.45454545454544" cy="212.12121212121212" r="5.454545454545455" fill="#000000"/><circle cx="54.54545454545455" cy="224.24242424242425" r="5.454545454545455" fill="#000000"/><circle cx="66.66666666666667" cy="224.24242424242425" r="5.454545454545455" fill="#000000"/><circle cx="78.78787878787878" cy="224.24242424242425" r="5.454545454545455" fill="#000000"/><circle cx="115.15151515151516" cy="224.24242424242425" r="5.454545454545455" fill="#000000"/><circle cx="127.27272727272727" cy="224.24242424242425" r="5.454545454545455" fill="#000000"/><circle cx="175.75757575757575" cy="224.24242424242425" r="5.454545454545455" fill="#000000"/><circle cx="200" cy="224.24242424242425" r="5.454545454545455" fill="#000000"/><circle cx="212.12121212121212" cy="224.24242424242425" r="5.454545454545455" fill="#000000"/><circle cx="248.48484848484847" cy="224.24242424242425" r="5.454545454545455" fill="#000000"/><circle cx="272.72727272727275" cy="224.24242424242425" r="5.454545454545455" fill="#000000"/><circle cx="296.96969696969694" cy="224.24242424242425" r="5.454545454545455" fill="#000000"/><circle cx="309.09090909090907" cy="224.24242424242425" r="5.454545454545455" fill="#000000"/><circle cx="321.2121212121212" cy="224.24242424242425" r="5.454545454545455" fill="#000000"/><circle cx="345.45454545454544" cy="224.24242424242425" r="5.454545454545455" fill="#000000"/><circle cx="103.03030303030303" cy="236.36363636363637" r="5.454545454545455" fill="#000000"/><circle cx="151.5151515151515" cy="236.36363636363637" r="5.454545454545455" fill="#000000"/><circle cx="212.12121212121212" cy="236.36363636363637" r="5.454545454545455" fill="#000000"/><circle cx="224.24242424242425" cy="236.36363636363637" r="5.454545454545455" fill="#000000"/><circle cx="236.36363636363637" cy="236.36363636363637" r="5.454545454545455" fill="#000000"/><circle cx="248.48484848484847" cy="236.36363636363637" r="5.454545454545455" fill="#000000"/><circle cx="260.6060606060606" cy="236.36363636363637" r="5.454545454545455" fill="#000000"/><circle cx="284.8484848484849" cy="236.36363636363637" r="5.454545454545455" fill="#000000"/><circle cx="309.09090909090907" cy="236.36363636363637" r="5.454545454545455" fill="#000000"/><circle cx="90.9090909090909" cy="248.48484848484847" r="5.454545454545455" fill="#000000"/><circle cx="103.03030303030303" cy="248.48484848484847" r="5.454545454545455" fill="#000000"/><circle cx="127.27272727272727" cy="248.48484848484847" r="5.454545454545455" fill="#000000"/><circle cx="187.87878787878788" cy="248.48484848484847" r="5.454545454545455" fill="#000000"/><circle cx="212.12121212121212" cy="248.48484848484847" r="5.454545454545455" fill="#000000"/><circle cx="224.24242424242425" cy="248.48484848484847" r="5.454545454545455" fill="#000000"/><circle cx="236.36363636363637" cy="248.48484848484847" r="5.454545454545455" fill="#000000"/><circle cx="248.48484848484847" cy="248.48484848484847" r="5.454545454545455" fill="#000000"/><circle cx="296.96969696969694" cy="248.48484848484847" r="5.454545454545455" fill="#000000"/><circle cx="333.3333333333333" cy="248.48484848484847" r="5.454545454545455" fill="#000000"/><circle cx="151.5151515151515" cy="260.6060606060606" r="5.454545454545455" fill="#000000"/><circle cx="163.63636363636363" cy="260.6060606060606" r="5.454545454545455" fill="#000000"/><circle cx="187.87878787878788" cy="260.6060606060606" r="5.454545454545455" fill="#000000"/><circle cx="248.48484848484847" cy="260.6060606060606" r="5.454545454545455" fill="#000000"/><circle cx="296.96969696969694" cy="260.6060606060606" r="5.454545454545455" fill="#000000"/><circle cx="345.45454545454544" cy="260.6060606060606" r="5.454545454545455" fill="#000000"/><rect x="48.484848484848484" y="266.6666666666667" width="12.121212121212121" height="12.121212121212121" fill="#000000"/><rect x="60.60606060606061" y="266.6666666666667" width="12.121212121212121" height="12.121212121212121" fill="#000000"/><rect x="72.72727272727272" y="266.6666666666667" width="12.121212121212121" height="12.121212121212121" fill="#000000"/><rect x="84.84848484848484" y="266.6666666666667" width="12.121212121212121" height="12.121212121212121" fill="#000000"/><rect x="96.96969696969697" y="266.6666666666667" width="12.121212121212121" height="12.121212121212121" fill="#000000"/><rect x="109.0909090909091" y="266.6666666666667" width="12.121212121212121" height="12.121212121212121" fill="#000000"/><rect x="121.21212121212122" y="266.6666666666667" width="12.121212121212121" height="12.121212121212121" fill="#000000"/><circle cx="163.63636363636363" cy="272.72727272727275" r="5.454545454545455" fill="#000000"/><circle cx="175.75757575757575" cy="272.72727272727275" r="5.454545454545455" fill="#000000"/><circle cx="200" cy="272.72727272727275" r="5.454545454545455" fill="#000000"/><circle cx="224.24242424242425" cy="272.72727272727275" r="5.454545454545455" fill="#000000"/><circle cx="248.48484848484847" cy="272.72727272727275" r="5.454545454545455" fill="#000000"/><circle cx="260.6060606060606" cy="272.72727272727275" r="5.454545454545455" fill="#000000"/><circle cx="272.72727272727275" cy="272.72727272727275" r="5.454545454545455" fill="#000000"/><circle cx="296.96969696969694" cy="272.72727272727275" r="5.454545454545455" fill="#000000"/><circle cx="345.45454545454544" cy="272.72727272727275" r="5.454545454545455" fill="#000000"/><rect x="48.484848484848484" y="278.7878787878788" width="12.121212121212121" height="12.121212121212121" fill="#000000"/><rect x="121.21212121212122" y="278.7878787878788" width="12.121212121212121" height="12.121212121212121" fill="#000000"/><circle cx="151.5151515151515" cy="284.8484848484849" r="5.454545454545455" fill="#000000"/><circle cx="248.48484848484847" cy="284.8484848484849" r="5.454545454545455" fill="#000000"/><circle cx="260.6060606060606" cy="284.8484848484849" r="5.454545454545455" fill="#000000"/><circle cx="284.8484848484849" cy="284.8484848484849" r="5.454545454545455" fill="#000000"/><circle cx="296.96969696969694" cy="284.8484848484849" r="5.454545454545455" fill="#000000"/><circle cx="333.3333333333333" cy="284.8484848484849" r="5.454545454545455" fill="#000000"/><circle cx="345.45454545454544" cy="284.8484848484849" r="5.454545454545455" fill="#000000"/><rect x="48.484848484848484" y="290.9090909090909" width="12.121212121212121" height="12.121212121212121" fill="#000000"/><rect x="72.72727272727272" y="290.9090909090909" width="12.121212121212121" height="12.121212121212121" fill="#000000"/><rect x="84.84848484848484" y="290.9090909090909" width="12.121212121212121" height="12.121212121212121" fill="#000000"/><rect x="96.96969696969697" y="290.9090909090909" width="12.121212121212121" height="12.121212121212121" fill="#000000"/><rect x="121.21212121212122" y="290.9090909090909" width="12.121212121212121" height="12.121212121212121" fill="#000000"/><circle cx="175.75757575757575" cy="296.96969696969694" r="5.454545454545455" fill="#000000"/><circle cx="200" cy="296.96969696969694" r="5.454545454545455" fill="#000000"/><circle cx="224.24242424242425" cy="296.96969696969694" r="5.454545454545455" fill="#000000"/><circle cx="260.6060606060606" cy="296.96969696969694" r="5.454545454545455" fill="#000000"/><circle cx="333.3333333333333" cy="296.96969696969694" r="5.454545454545455" fill="#000000"/><circle cx="345.45454545454544" cy="296.96969696969694" r="5.454545454545455" fill="#000000"/><rect x="48.484848484848484" y="303.030303030303" width="12.121212121212121" height="12.121212121212121" fill="#000000"/><rect x="72.72727272727272" y="303.030303030303" width="12.121212121212121" height="12.121212121212121" fill="#000000"/><rect x="84.84848484848484" y="303.030303030303" width="12.121212121212121" height="12.121212121212121" fill="#000000"/><rect x="96.96969696969697" y="303.030303030303" width="12.121212121212121" height="12.121212121212121" fill="#000000"/><rect x="121.21212121212122" y="303.030303030303" width="12.121212121212121" height="12.121212121212121" fill="#000000"/><circle cx="175.75757575757575" cy="309.09090909090907" r="5.454545454545455" fill="#000000"/><circle cx="200" cy="309.09090909090907" r="5.454545454545455" fill="#000000"/><circle cx="212.12121212121212" cy="309.09090909090907" r="5.454545454545455" fill="#000000"/><circle cx="224.24242424242425" cy="309.09090909090907" r="5.454545454545455" fill="#000000"/><circle cx="248.48484848484847" cy="309.09090909090907" r="5.454545454545455" fill="#000000"/><circle cx="260.6060606060606" cy="309.09090909090907" r="5.454545454545455" fill="#000000"/><circle cx="272.72727272727275" cy="309.09090909090907" r="5.454545454545455" fill="#000000"/><circle cx="296.96969696969694" cy="309.09090909090907" r="5.454545454545455" fill="#000000"/><circle cx="321.2121212121212" cy="309.09090909090907" r="5.454545454545455" fill="#000000"/><circle cx="333.3333333333333" cy="309.09090909090907" r="5.454545454545455" fill="#000000"/><rect x="48.484848484848484" y="315.1515151515151" width="12.121212121212121" height="12.121212121212121" fill="#000000"/><rect x="72.72727272727272" y="315.1515151515151" width="12.121212121212121" height="12.121212121212121" fill="#000000"/><rect x="84.84848484848484" y="315.1515151515151" width="12.121212121212121" height="12.121212121212121" fill="#000000"/><rect x="96.96969696969697" y="315.1515151515151" width="12.121212121212121" height="12.121212121212121" fill="#000000"/><rect x="121.21212121212122" y="315.1515151515151" width="12.121212121212121" height="12.121212121212121" fill="#000000"/><circle cx="151.5151515151515" cy="321.2121212121212" r="5.454545454545455" fill="#000000"/><circle cx="163.63636363636363" cy="321.2121212121212" r="5.454545454545455" fill="#000000"/><circle cx="175.75757575757575" cy="321.2121212121212" r="5.454545454545455" fill="#000000"/><circle cx="200" cy="321.2121212121212" r="5.454545454545455" fill="#000000"/><circle cx="212.12121212121212" cy="321.2121212121212" r="5.454545454545455" fill="#000000"/><circle cx="236.36363636363637" cy="321.2121212121212" r="5.454545454545455" fill="#000000"/><circle cx="248.48484848484847" cy="321.2121212121212" r="5.454545454545455" fill="#000000"/><circle cx="260.6060606060606" cy="321.2121212121212" r="5.454545454545455" fill="#000000"/><circle cx="272.72727272727275" cy="321.2121212121212" r="5.454545454545455" fill="#000000"/><circle cx="284.8484848484849" cy="321.2121212121212" r="5.454545454545455" fill="#000000"/><circle cx="296.96969696969694" cy="321.2121212121212" r="5.454545454545455" fill="#000000"/><circle cx="309.09090909090907" cy="321.2121212121212" r="5.454545454545455" fill="#000000"/><circle cx="333.3333333333333" cy="321.2121212121212" r="5.454545454545455" fill="#000000"/><circle cx="345.45454545454544" cy="321.2121212121212" r="5.454545454545455" fill="#000000"/><rect x="48.484848484848484" y="327.27272727272725" width="12.121212121212121" height="12.121212121212121" fill="#000000"/><rect x="121.21212121212122" y="327.27272727272725" width="12.121212121212121" height="12.121212121212121" fill="#000000"/><circle cx="200" cy="333.3333333333333" r="5.454545454545455" fill="#000000"/><circle cx="212.12121212121212" cy="333.3333333333333" r="5.454545454545455" fill="#000000"/><circle cx="224.24242424242425" cy="333.3333333333333" r="5.454545454545455" fill="#000000"/><circle cx="236.36363636363637" cy="333.3333333333333" r="5.454545454545455" fill="#000000"/><circle cx="260.6060606060606" cy="333.3333333333333" r="5.454545454545455" fill="#000000"/><circle cx="284.8484848484849" cy="333.3333333333333" r="5.454545454545455" fill="#000000"/><circle cx="296.96969696969694" cy="333.3333333333333" r="5.454545454545455" fill="#000000"/><rect x="48.484848484848484" y="339.3939393939394" width="12.121212121212121" height="12.121212121212121" fill="#000000"/><rect x="60.60606060606061" y="339.3939393939394" width="12.121212121212121" height="12.121212121212121" fill="#000000"/><rect x="72.72727272727272" y="339.3939393939394" width="12.121212121212121" height="12.121212121212121" fill="#000000"/><rect x="84.84848484848484" y="339.3939393939394" width="12.121212121212121" height="12.121212121212121" fill="#000000"/><rect x="96.96969696969697" y="339.3939393939394" width="12.121212121212121" height="12.121212121212121" fill="#000000"/><rect x="109.0909090909091" y="339.3939393939394" width="12.121212121212121" height="12.121212121212121" fill="#000000"/><rect x="121.21212121212122" y="339.3939393939394" width="12.121212121212121" height="12.121212121212121" fill="#000000"/><circle cx="151.5151515151515" cy="345.45454545454544" r="5.454545454545455" fill="#000000"/><circle cx="175.75757575757575" cy="345.45454545454544" r="5.454545454545455" fill="#000000"/><circle cx="212.12121212121212" cy="345.45454545454544" r="5.454545454545455" fill="#000000"/><circle cx="224.24242424242425" cy="345.45454545454544" r="5.454545454545455" fill="#000000"/><circle cx="248.48484848484847" cy="345.45454545454544" r="5.454545454545455" fill="#000000"/><circle cx="260.6060606060606" cy="345.45454545454544" r="5.454545454545455" fill="#000000"/><circle cx="309.09090909090907" cy="345.45454545454544" r="5.454545454545455" fill="#000000"/><circle cx="345.45454545454544" cy="345.45454545454544" r="5.454545454545455" fill="#000000"/></svg>