<svg xmlns="http://www.w3.org/2000/svg" viewBox="0 0 500 500" width="500" height="500"><rect width="500" height="500" fill="#ffffff"/><path fill="#2e7d32" d="M48.78048780487805,48.78048780487805h12.195121951219512v12.195121951219512h-12.195121951219512zM60.97560975609756,48.78048780487805h12.195121951219512v12.195121951219512h-12.195121951219512zM73.17073170731707,48.78048780487805h12.195121951219512v12.195121951219512h-12.195121951219512zM85.3658536585366,48.78048780487805h12.195121951219512v12.195121951219512h-12.195121951219512zM97.5609756097561,48.78048780487805h12.195121951219512v12.195121951219512h-12.195121951219512zM109.7560975609756,48.78048780487805h12.195121951219512v12.195121951219512h-12.195121951219512zM121.95121951219512,48.78048780487805h12.195121951219512v12.195121951219512h-12.195121951219512zM146.34146341463415,48.78048780487805h12.195121951219512v12.195121951219512h-12.195121951219512zM170.7317073170732,48.78048780487805h12.195121951219512v12.195121951219512h-12.195121951219512zM195.1219512195122,48.78048780487805h12.195121951219512v12.195121951219512h-12.195121951219512zM219.5121951219512,48.78048780487805h12.195121951219512v12.195121951219512h-12.195121951219512zM256.0975609756098,48.78048780487805h12.195121951219512v12.195121951219512h-12.195121951219512zM268.2926829268293,48.78048780487805h12.195121951219512v12.195121951219512h-12.195121951219512zM317.0731707317073,48.78048780487805h12.195121951219512v12.195121951219512h-12.195121951219512zM365.8536585365854,48.78048780487805h12.195121951219512v12.195121951219512h-12.195121951219512zM378.0487804878049,48.78048780487805h12.195121951219512v12.195121951219512h-12.195121951219512zM390.2439024390244,48.78048780487805h12.195121951219512v12.195121951219512h-12.195121951219512zM402.4390243902439,48.78048780487805h12.195121951219512v12.195121951219512h-12.195121951219512zM414.6341463414634,48.78048780487805h12.195121951219512v12.195121951219512h-12.195121951219512zM426.8292682926829,48.78048780487805h12.195121951219512v12.195121951219512h-12.195121951219512zM439.0243902439024,48.78048780487805h12.195121951219512v12.195121951219512h-12.195121951219512zM48.78048780487805,60.97560975609756h12.195121951219512v12.195121951219512h-12.195121951219512zM121.95121951219512,60.97560975609756h12.195121951219512v12.195121951219512h-12.195121951219512zM146.34146341463415,60.97560975609756h12.195121951219512v12.195121951219512h-12.195121951219512zM195.1219512195122,60.97560975609756h12.195121951219512v12.195121951219512h-12.195121951219512zM231.70731707317074,60.97560975609756h12.195121951219512v12.195121951219512h-12.195121951219512zM256.0975609756098,60.97560975609756h12.195121951219512v12.195121951219512h-12.195121951219512zM268.2926829268293,60.97560975609756h12.195121951219512v12.195121951219512h-12.195121951219512zM292.6829268292683,60.97560975609756h12.195121951219512v12.195121951219512h-12.195121951219512zM317.0731707317073,60.97560975609756h12.195121951219512v12.195121951219512h-12.195121951219512zM329.2682926829268,60.97560975609756h12.195121951219512v12.195121951219512h-12.195121951219512zM341.4634146341464,60.97560975609756h12.195121951219512v12.195121951219512h-12.195121951219512zM365.8536585365854,60.97560975609756h12.195121951219512v12.195121951219512h-12.195121951219512zM439.0243902439024,60.97560975609756h12.195121951219512v12.195121951219512h-12.195121951219512zM48.78048780487805,73.17073170731707h12.195121951219512v12.195121951219512h-12.195121951219512zM73.17073170731707,73.17073170731707h12.195121951219512v12.195121951219512h-12.195121951219512zM85.3658536585366,73.17073170731707h12.195121951219512v12.195121951219512h-12.195121951219512zM97.5609756097561,73.17073170731707h12.195121951219512v12.195121951219512h-12.195121951219512zM121.95121951219512,73.17073170731707h12.195121951219512v12.195121951219512h-12.195121951219512zM146.34146341463415,73.17073170731707h12.195121951219512v12.195121951219512h-12.195121951219512zM158.53658536585365,73.17073170731707h12.195121951219512v12.195121951219512h-12.195121951219512zM170.7317073170732,73.17073170731707h12.195121951219512v12.195121951219512h-12.195121951219512zM182.9268292682927,73.17073170731707h12.195121951219512v12.195121951219512h-12.195121951219512zM207.3170731707317,73.17073170731707h12.195121951219512v12.195121951219512h-12.195121951219512zM231.70731707317074,73.17073170731707h12.195121951219512v12.195121951219512h-12.195121951219512zM243.90243902439025,73.17073170731707h12.195121951219512v12.195121951219512h-12.195121951219512zM256.0975609756098,73.17073170731707h12.195121951219512v12.195121951219512h-12.195121951219512zM268.2926829268293,73.17073170731707h12.195121951219512v12.195121951219512h-12.195121951219512zM304.8780487804878,73.17073170731707h12.195121951219512v12.195121951219512h-12.195121951219512zM341.4634146341464,73.17073170731707h12.195121951219512v12.195121951219512h-12.195121951219512zM365.8536585365854,73.17073170731707h12.195121951219512v12.195121951219512h-12.195121951219512zM390.2439024390244,73.17073170731707h12.195121951219512v12.195121951219512h-12.195121951219512zM402.4390243902439,73.17073170731707h12.195121951219512v12.195121951219512h-12.195121951219512zM414.6341463414634,73.17073170731707h12.195121951219512v12.195121951219512h-12.195121951219512zM439.0243902439024,73.17073170731707h12.195121951219512v12.195121951219512h-12.195121951219512zM48.78048780487805,85.3658536585366h12.195121951219512v12.195121951219512h-12.195121951219512zM73.17073170731707,85.3658536585366h12.195121951219512v12.195121951219512h-12.195121951219512zM85.3658536585366,85.3658536585366h12.195121951219512v12.195121951219512h-12.195121951219512zM97.5609756097561,85.3658536585366h12.195121951219512v12.195121951219512h-12.195121951219512zM121.95121951219512,85.3658536585366h12.195121951219512v12.195121951219512h-12.195121951219512zM158.53658536585365,85.3658536585366h12.195121951219512v12.195121951219512h-12.195121951219512zM182.9268292682927,85.3658536585366h12.195121951219512v12.195121951219512h-12.195121951219512zM231.70731707317074,85.3658536585366h12.195121951219512v12.195121951219512h-12.195121951219512zM243.90243902439025,85.3658536585366h12.195121951219512v12.195121951219512h-12.195121951219512zM256.0975609756098,85.3658536585366h12.195121951219512v12.195121951219512h-12.195121951219512zM292.6829268292683,85.3658536585366h12.195121951219512v12.195121951219512h-12.195121951219512zM304.8780487804878,85.3658536585366h12.195121951219512v12.195121951219512h-12.195121951219512zM317.0731707317073,85.3658536585366h12.195121951219512v12.195121951219512h-12.195121951219512zM329.2682926829268,85.3658536585366h12.195121951219512v12.195121951219512h-12.195121951219512zM341.4634146341464,85.3658536585366h12.195121951219512v12.195121951219512h-12.195121951219512zM365.8536585365854,85.3658536585366h12.195121951219512v12.195121951219512h-12.195121951219512zM390.2439024390244,85.3658536585366h12.195121951219512v12.195121951219512h-12.195121951219512zM402.4390243902439,85.3658536585366h12.195121951219512v12.195121951219512h-12.195121951219512zM414.6341463414634,85.3658536585366h12.195121951219512v12.195121951219512h-12.195121951219512zM439.0243902439024,85.3658536585366h12.195121951219512v12.195121951219512h-12.195121951219512zM48.78048780487805,97.5609756097561h12.195121951219512v12.195121951219512h-12.195121951219512zM73.17073170731707,97.5609756097561h12.195121951219512v12.195121951219512h-12.195121951219512zM85.3658536585366,97.5609756097561h12.195121951219512v12.195121951219512h-12.195121951219512zM97.5609756097561,97.5609756097561h12.195121951219512v12.195121951219512h-12.195121951219512zM121.95121951219512,97.5609756097561h12.195121951219512v12.195121951219512h-12.195121951219512zM158.53658536585365,97.5609756097561h12.195121951219512v12.195121951219512h-12.195121951219512zM170.7317073170732,97.5609756097561h12.195121951219512v12.195121951219512h-12.195121951219512zM207.3170731707317,97.5609756097561h12.195121951219512v12.195121951219512h-12.195121951219512zM243.90243902439025,97.5609756097561h12.195121951219512v12.195121951219512h-12.195121951219512zM256.0975609756098,97.5609756097561h12.195121951219512v12.195121951219512h-12.195121951219512zM280.4878048780488,97.5609756097561h12.195121951219512v12.195121951219512h-12.195121951219512zM292.6829268292683,97.5609756097561h12.195121951219512v12.195121951219512h-12.195121951219512zM317.0731707317073,97.5609756097561h12.195121951219512v12.195121951219512h-12.195121951219512zM329.2682926829268,97.5609756097561h12.195121951219512v12.195121951219512h-12.195121951219512zM341.4634146341464,97.5609756097561h12.195121951219512v12.195121951219512h-12.195121951219512zM365.8536585365854,97.5609756097561h12.195121951219512v12.195121951219512h-12.195121951219512zM390.2439024390244,97.5609756097561h12.195121951219512v12.195121951219512h-12.195121951219512zM402.4390243902439,97.5609756097561h12.195121951219512v12.195121951219512h-12.195121951219512zM414.6341463414634,97.5609756097561h12.195121951219512v12.195121951219512h-12.195121951219512zM439.0243902439024,97.5609756097561h12.195121951219512v12.195121951219512h-12.195121951219512zM48.78048780487805,109.7560975609756h12.195121951219512v12.195121951219512h-12.195121951219512zM121.95121951219512,109.7560975609756h12.195121951219512v12.195121951219512h-12.195121951219512zM146.34146341463415,109.7560975609756h12.195121951219512v12.195121951219512h-12.195121951219512zM158.53658536585365,109.7560975609756h12.195121951219512v12.195121951219512h-12.195121951219512zM219.5121951219512,109.7560975609756h12.195121951219512v12.195121951219512h-12.195121951219512zM231.70731707317074,109.7560975609756h12.195121951219512v12.195121951219512h-12.195121951219512zM243.90243902439025,109.7560975609756h12.195121951219512v12.195121951219512h-12.195121951219512zM280.4878048780488,109.7560975609756h12.195121951219512v12.195121951219512h-12.195121951219512zM292.6829268292683,109.7560975609756h12.195121951219512v12.195121951219512h-12.195121951219512zM304.8780487804878,109.7560975609756h12.195121951219512v12.195121951219512h-12.195121951219512zM317.0731707317073,109.7560975609756h12.195121951219512v12.195121951219512h-12.195121951219512zM329.2682926829268,109.7560975609756h12.195121951219512v12.195121951219512h-12.195121951219512zM365.8536585365854,109.7560975609756h12.195121951219512v12.195121951219512h-12.195121951219512zM439.0243902439024,109.7560975609756h12.195121951219512v12.195121951219512h-12.195121951219512zM48.78048780487805,121.95121951219512h12.195121951219512v12.195121951219512h-12.195121951219512zM60.97560975609756,121.95121951219512h12.195121951219512v12.195121951219512h-12.195121951219512zM73.17073170731707,121.95121951219512h12.195121951219512v12.195121951219512h-12.195121951219512zM85.3658536585366,121.95121951219512h12.195121951219512v12.195121951219512h-12.195121951219512zM97.5609756097561,121.95121951219512h12.195121951219512v12.195121951219512h-12.195121951219512zM109.7560975609756,121.95121951219512h12.195121951219512v12.195121951219512h-12.195121951219512zM121.95121951219512,121.95121951219512h12.195121951219512v12.195121951219512h-12.195121951219512zM146.34146341463415,121.95121951219512h12.195121951219512v12.195121951219512h-12.195121951219512zM170.7317073170732,121.95121951219512h12.195121951219512v12.195121951219512h-12.195121951219512zM195.1219512195122,121.95121951219512h12.195121951219512v12.195121951219512h-12.195121951219512zM219.5121951219512,121.95121951219512h12.195121951219512v12.195121951219512h-12.195121951219512zM243.90243902439025,121.95121951219512h12.195121951219512v12.195121951219512h-12.195121951219512zM268.2926829268293,121.95121951219512h12.195121951219512v12.195121951219512h-12.195121951219512zM292.6829268292683,121.95121951219512h12.195121951219512v12.195121951219512h-12.195121951219512zM317.0731707317073,121.95121951219512h12.195121951219512v12.195121951219512h-12.195121951219512zM341.4634146341464,121.95121951219512h12.195121951219512v12.195121951219512h-12.195121951219512zM365.8536585365854,121.95121951219512h12.195121951219512v12.195121951219512h-12.195121951219512zM378.0487804878049,121.95121951219512h12.195121951219512v12.195121951219512h-12.195121951219512zM390.2439024390244,121.95121951219512h12.195121951219512v12.195121951219512h-12.195121951219512zM402.4390243902439,121.95121951219512h12.195121951219512v12.195121951219512h-12.195121951219512zM414.6341463414634,121.95121951219512h12.195121951219512v12.195121951219512h-12.195121951219512zM426.8292682926829,121.95121951219512h12.195121951219512v12.195121951219512h-12.195121951219512zM439.0243902439024,121.95121951219512h12.195121951219512v12.195121951219512h-12.195121951219512zM146.34146341463415,134.14634146341464h12.195121951219512v12.195121951219512h-12.195121951219512zM158.53658536585365,134.14634146341464h12.195121951219512v12.195121951219512h-12.195121951219512zM170.7317073170732,134.14634146341464h12.195121951219512v12.195121951219512h-12.195121951219512zM195.1219512195122,134.14634146341464h12.195121951219512v12.195121951219512h-12.195121951219512zM207.3170731707317,134.14634146341464h12.195121951219512v12.195121951219512h-12.195121951219512zM231.70731707317074,134.14634146341464h12.195121951219512v12.195121951219512h-12.195121951219512zM256.0975609756098,134.14634146341464h12.195121951219512v12.195121951219512h-12.195121951219512zM73.17073170731707,146.34146341463415h12.195121951219512v12.195121951219512h-12.195121951219512zM85.3658536585366,146.34146341463415h12.195121951219512v12.195121951219512h-12.195121951219512zM97.5609756097561,146.34146341463415h12.195121951219512v12.195121951219512h-12.195121951219512zM121.95121951219512,146.34146341463415h12.195121951219512v12.195121951219512h-12.195121951219512zM146.34146341463415,146.34146341463415h12.195121951219512v12.195121951219512h-12.195121951219512zM158.53658536585365,146.34146341463415h12.195121951219512v12.195121951219512h-12.195121951219512zM243.90243902439025,146.34146341463415h12.195121951219512v12.195121951219512h-12.195121951219512zM256.0975609756098,146.34146341463415h12.195121951219512v12.195121951219512h-12.195121951219512zM292.6829268292683,146.34146341463415h12.195121951219512v12.195121951219512h-12.195121951219512zM304.8780487804878,146.34146341463415h12.195121951219512v12.195121951219512h-12.195121951219512zM317.0731707317073,146.34146341463415h12.195121951219512v12.195121951219512h-12.195121951219512zM329.2682926829268,146.34146341463415h12.195121951219512v12.195121951219512h-12.195121951219512zM353.6585365853659,146.34146341463415h12.195121951219512v12.195121951219512h-12.195121951219512zM390.2439024390244,146.34146341463415h12.195121951219512v12.195121951219512h-12.195121951219512zM402.4390243902439,146.34146341463415h12.195121951219512v12.195121951219512h-12.195121951219512zM414.6341463414634,146.34146341463415h12.195121951219512v12.195121951219512h-12.195121951219512zM48.78048780487805,158.53658536585365h12.195121951219512v12.195121951219512h-12.195121951219512zM109.7560975609756,158.53658536585365h12.195121951219512v12.195121951219512h-12.195121951219512zM134.14634146341464,158.53658536585365h12.195121951219512v12.195121951219512h-12.195121951219512zM146.34146341463415,158.53658536585365h12.195121951219512v12.195121951219512h-12.195121951219512zM158.53658536585365,158.53658536585365h12.195121951219512v12.195121951219512h-12.195121951219512zM170.7317073170732,158.53658536585365h12.195121951219512v12.195121951219512h-12.195121951219512zM207.3170731707317,158.53658536585365h12.195121951219512v12.195121951219512h-12.195121951219512zM219.5121951219512,158.53658536585365h12.195121951219512v12.195121951219512h-12.195121951219512zM256.0975609756098,158.53658536585365h12.195121951219512v12.195121951219512h-12.195121951219512zM268.2926829268293,158.53658536585365h12.195121951219512v12.195121951219512h-12.195121951219512zM390.2439024390244,158.53658536585365h12.195121951219512v12.195121951219512h-12.195121951219512zM402.4390243902439,158.53658536585365h12.195121951219512v12.195121951219512h-12.195121951219512zM426.8292682926829,158.53658536585365h12.195121951219512v12.195121951219512h-12.195121951219512zM439.0243902439024,158.53658536585365h12.195121951219512v12.195121951219512h-12.195121951219512zM48.78048780487805,170.7317073170732h12.195121951219512v12.195121951219512h-12.195121951219512zM85.3658536585366,170.7317073170732h12.195121951219512v12.195121951219512h-12.195121951219512zM121.95121951219512,170.7317073170732h12.195121951219512v12.195121951219512h-12.195121951219512zM134.14634146341464,170.7317073170732h12.195121951219512v12.195121951219512h-12.195121951219512zM195.1219512195122,170.7317073170732h12.195121951219512v12.195121951219512h-12.195121951219512zM231.70731707317074,170.7317073170732h12.195121951219512v12.195121951219512h-12.195121951219512zM243.90243902439025,170.7317073170732h12.195121951219512v12.195121951219512h-12.195121951219512zM292.6829268292683,170.7317073170732h12.195121951219512v12.195121951219512h-12.195121951219512zM341.4634146341464,170.7317073170732h12.195121951219512v12.195121951219512h-12.195121951219512zM402.4390243902439,170.7317073170732h12.195121951219512v12.195121951219512h-12.195121951219512zM426.8292682926829,170.7317073170732h12.195121951219512v12.195121951219512h-12.195121951219512zM48.78048780487805,182.9268292682927h12.195121951219512v12.195121951219512h-12.195121951219512zM73.17073170731707,182.9268292682927h12.195121951219512v12.195121951219512h-12.195121951219512zM85.3658536585366,182.9268292682927h12.195121951219512v12.195121951219512h-12.195121951219512zM134.14634146341464,182.9268292682927h12.195121951219512v12.195121951219512h-12.195121951219512zM158.53658536585365,182.9268292682927h12.195121951219512v12.195121951219512h-12.195121951219512zM170.7317073170732,182.9268292682927h12.195121951219512v12.195121951219512h-12.195121951219512zM207.3170731707317,182.9268292682927h12.195121951219512v12.195121951219512h-12.195121951219512zM219.5121951219512,182.9268292682927h12.195121951219512v12.195121951219512h-12.195121951219512zM231.70731707317074,182.9268292682927h12.195121951219512v12.195121951219512h-12.195121951219512zM268.2926829268293,182.9268292682927h12.195121951219512v12.195121951219512h-12.195121951219512zM280.4878048780488,182.9268292682927h12.195121951219512v12.195121951219512h-12.195121951219512zM329.2682926829268,182.9268292682927h12.195121951219512v12.195121951219512h-12.195121951219512zM341.4634146341464,182.9268292682927h12.195121951219512v12.195121951219512h-12.195121951219512zM353.6585365853659,182.9268292682927h12.195121951219512v12.195121951219512h-12.195121951219512zM402.4390243902439,182.9268292682927h12.195121951219512v12.195121951219512h-12.195121951219512zM414.6341463414634,182.9268292682927h12.195121951219512v12.195121951219512h-12.195121951219512zM426.8292682926829,182.9268292682927h12.195121951219512v12.195121951219512h-12.195121951219512zM48.78048780487805,195.1219512195122h12.195121951219512v12.195121951219512h-12.195121951219512zM73.17073170731707,195.1219512195122h12.195121951219512v12.195121951219512h-12.195121951219512zM121.95121951219512,195.1219512195122h12.195121951219512v12.195121951219512h-12.195121951219512zM158.53658536585365,195.1219512195122h12.195121951219512v12.195121951219512h-12.195121951219512zM195.1219512195122,195.1219512195122h12.195121951219512v12.195121951219512h-12.195121951219512zM243.90243902439025,195.1219512195122h12.195121951219512v12.195121951219512h-12.195121951219512zM280.4878048780488,195.1219512195122h12.195121951219512v12.195121951219512h-12.195121951219512zM292.6829268292683,195.1219512195122h12.195121951219512v12.195121951219512h-12.195121951219512zM304.8780487804878,195.1219512195122h12.195121951219512v12.195121951219512h-12.195121951219512zM317.0731707317073,195.1219512195122h12.195121951219512v12.195121951219512h-12.195121951219512zM329.2682926829268,195.1219512195122h12.195121951219512v12.195121951219512h-12.195121951219512zM341.4634146341464,195.1219512195122h12.195121951219512v12.195121951219512h-12.195121951219512zM353.6585365853659,195.1219512195122h12.195121951219512v12.195121951219512h-12.195121951219512zM365.8536585365854,195.1219512195122h12.195121951219512v12.195121951219512h-12.195121951219512zM390.2439024390244,195.1219512195122h12.195121951219512v12.195121951219512h-12.195121951219512zM426.8292682926829,195.1219512195122h12.195121951219512v12.195121951219512h-12.195121951219512zM48.78048780487805,207.3170731707317h12.195121951219512v12.195121951219512h-12.195121951219512zM85.3658536585366,207.3170731707317h12.195121951219512v12.195121951219512h-12.195121951219512zM109.7560975609756,207.3170731707317h12.195121951219512v12.195121951219512h-12.195121951219512zM134.14634146341464,207.3170731707317h12.195121951219512v12.195121951219512h-12.195121951219512zM146.34146341463415,207.3170731707317h12.195121951219512v12.195121951219512h-12.195121951219512zM182.9268292682927,207.3170731707317h12.195121951219512v12.195121951219512h-12.195121951219512zM195.1219512195122,207.3170731707317h12.195121951219512v12.195121951219512h-12.195121951219512zM304.8780487804878,207.3170731707317h12.195121951219512v12.195121951219512h-12.195121951219512zM390.2439024390244,207.3170731707317h12.195121951219512v12.195121951219512h-12.195121951219512zM402.4390243902439,207.3170731707317h12.195121951219512v12.195121951219512h-12.195121951219512zM414.6341463414634,207.3170731707317h12.195121951219512v12.195121951219512h-12.195121951219512zM439.0243902439024,207.3170731707317h12.195121951219512v12.195121951219512h-12.195121951219512zM48.78048780487805,219.5121951219512h12.195121951219512v12.195121951219512h-12.195121951219512zM85.3658536585366,219.5121951219512h12.195121951219512v12.195121951219512h-12.195121951219512zM109.7560975609756,219.5121951219512h12.195121951219512v12.195121951219512h-12.195121951219512zM121.95121951219512,219.5121951219512h12.195121951219512v12.195121951219512h-12.195121951219512zM292.6829268292683,219.5121951219512h12.195121951219512v12.195121951219512h-12.195121951219512zM341.4634146341464,219.5121951219512h12.195121951219512v12.195121951219512h-12.195121951219512zM353.6585365853659,219.5121951219512h12.195121951219512v12.195121951219512h-12.195121951219512zM414.6341463414634,219.5121951219512h12.195121951219512v12.195121951219512h-12.195121951219512zM426.8292682926829,219.5121951219512h12.195121951219512v12.195121951219512h-12.195121951219512zM48.78048780487805,231.70731707317074h12.195121951219512v12.195121951219512h-12.195121951219512zM73.17073170731707,231.70731707317074h12.195121951219512v12.195121951219512h-12.195121951219512zM85.3658536585366,231.70731707317074h12.195121951219512v12.195121951219512h-12.195121951219512zM134.14634146341464,231.70731707317074h12.195121951219512v12.195121951219512h-12.195121951219512zM158.53658536585365,231.70731707317074h12.195121951219512v12.195121951219512h-12.195121951219512zM170.7317073170732,231.70731707317074h12.195121951219512v12.195121951219512h-12.195121951219512zM304.8780487804878,231.70731707317074h12.195121951219512v12.195121951219512h-12.195121951219512zM378.0487804878049,231.70731707317074h12.195121951219512v12.195121951219512h-12.195121951219512zM402.4390243902439,231.70731707317074h12.195121951219512v12.195121951219512h-12.195121951219512zM414.6341463414634,231.70731707317074h12.195121951219512v12.195121951219512h-12.195121951219512zM48.78048780487805,243.90243902439025h12.195121951219512v12.195121951219512h-12.195121951219512zM73.17073170731707,243.90243902439025h12.195121951219512v12.195121951219512h-12.195121951219512zM97.5609756097561,243.90243902439025h12.195121951219512v12.195121951219512h-12.195121951219512zM121.95121951219512,243.90243902439025h12.195121951219512v12.195121951219512h-12.195121951219512zM182.9268292682927,243.90243902439025h12.195121951219512v12.195121951219512h-12.195121951219512zM195.1219512195122,243.90243902439025h12.195121951219512v12.195121951219512h-12.195121951219512zM280.4878048780488,243.90243902439025h12.195121951219512v12.195121951219512h-12.195121951219512zM292.6829268292683,243.90243902439025h12.195121951219512v12.195121951219512h-12.195121951219512zM353.6585365853659,243.90243902439025h12.195121951219512v12.195121951219512h-12.195121951219512zM402.4390243902439,243.90243902439025h12.195121951219512v12.195121951219512h-12.195121951219512zM426.8292682926829,243.90243902439025h12.195121951219512v12.195121951219512h-12.195121951219512zM439.0243902439024,243.90243902439025h12.195121951219512v12.195121951219512h-12.195121951219512zM48.78048780487805,256.0975609756098h12.195121951219512v12.195121951219512h-12.195121951219512zM73.17073170731707,256.0975609756098h12.195121951219512v12.195121951219512h-12.195121951219512zM85.3658536585366,256.0975609756098h12.195121951219512v12.195121951219512h-12.195121951219512zM109.7560975609756,256.0975609756098h12.195121951219512v12.195121951219512h-12.195121951219512zM146.34146341463415,256.0975609756098h12.195121951219512v12.195121951219512h-12.195121951219512zM195.1219512195122,256.0975609756098h12.195121951219512v12.195121951219512h-12.195121951219512zM280.4878048780488,256.0975609756098h12.195121951219512v12.195121951219512h-12.195121951219512zM304.8780487804878,256.0975609756098h12.195121951219512v12.195121951219512h-12.195121951219512zM317.0731707317073,256.0975609756098h12.195121951219512v12.195121951219512h-12.195121951219512zM329.2682926829268,256.0975609756098h12.195121951219512v12.195121951219512h-12.195121951219512zM341.4634146341464,256.0975609756098h12.195121951219512v12.195121951219512h-12.195121951219512zM378.0487804878049,256.0975609756098h12.195121951219512v12.195121951219512h-12.195121951219512zM426.8292682926829,256.0975609756098h12.195121951219512v12.195121951219512h-12.195121951219512zM439.0243902439024,256.0975609756098h12.195121951219512v12.195121951219512h-12.195121951219512zM48.78048780487805,268.2926829268293h12.195121951219512v12.195121951219512h-12.195121951219512zM85.3658536585366,268.2926829268293h12.195121951219512v12.195121951219512h-12.195121951219512zM121.95121951219512,268.2926829268293h12.195121951219512v12.195121951219512h-12.195121951219512zM146.34146341463415,268.2926829268293h12.195121951219512v12.195121951219512h-12.195121951219512zM182.9268292682927,268.2926829268293h12.195121951219512v12.195121951219512h-12.195121951219512zM280.4878048780488,268.2926829268293h12.195121951219512v12.195121951219512h-12.195121951219512zM292.6829268292683,268.2926829268293h12.195121951219512v12.195121951219512h-12.195121951219512zM317.0731707317073,268.2926829268293h12.195121951219512v12.195121951219512h-12.195121951219512zM341.4634146341464,268.2926829268293h12.195121951219512v12.195121951219512h-12.195121951219512zM390.2439024390244,268.2926829268293h12.195121951219512v12.195121951219512h-12.195121951219512zM414.6341463414634,268.2926829268293h12.195121951219512v12.195121951219512h-12.195121951219512zM426.8292682926829,268.2926829268293h12.195121951219512v12.195121951219512h-12.195121951219512zM48.78048780487805,280.4878048780488h12.195121951219512v12.195121951219512h-12.195121951219512zM73.17073170731707,280.4878048780488h12.195121951219512v12.195121951219512h-12.195121951219512zM85.3658536585366,280.4878048780488h12.195121951219512v12.195121951219512h-12.195121951219512zM134.14634146341464,280.4878048780488h12.195121951219512v12.195121951219512h-12.195121951219512zM170.7317073170732,280.4878048780488h12.195121951219512v12.195121951219512h-12.195121951219512zM182.9268292682927,280.4878048780488h12.195121951219512v12.195121951219512h-12.195121951219512zM207.3170731707317,280.4878048780488h12.195121951219512v12.195121951219512h-12.195121951219512zM219.5121951219512,280.4878048780488h12.195121951219512v12.195121951219512h-12.195121951219512zM231.70731707317074,280.4878048780488h12.195121951219512v12.195121951219512h-12.195121951219512zM268.2926829268293,280.4878048780488h12.195121951219512v12.195121951219512h-12.195121951219512zM329.2682926829268,280.4878048780488h12.195121951219512v12.195121951219512h-12.195121951219512zM341.4634146341464,280.4878048780488h12.195121951219512v12.195121951219512h-12.195121951219512zM353.6585365853659,280.4878048780488h12.195121951219512v12.195121951219512h-12.195121951219512zM378.0487804878049,280.4878048780488h12.195121951219512v12.195121951219512h-12.195121951219512zM390.2439024390244,280.4878048780488h12.195121951219512v12.195121951219512h-12.195121951219512zM402.4390243902439,280.4878048780488h12.195121951219512v12.195121951219512h-12.195121951219512zM414.6341463414634,280.4878048780488h12.195121951219512v12.195121951219512h-12.195121951219512zM426.8292682926829,280.4878048780488h12.195121951219512v12.195121951219512h-12.195121951219512zM439.0243902439024,280.4878048780488h12.195121951219512v12.195121951219512h-12.195121951219512zM48.78048780487805,292.6829268292683h12.195121951219512v12.195121951219512h-12.195121951219512zM73.17073170731707,292.6829268292683h12.195121951219512v12.195121951219512h-12.195121951219512zM85.3658536585366,292.6829268292683h12.195121951219512v12.195121951219512h-12.195121951219512zM97.5609756097561,292.6829268292683h12.195121951219512v12.195121951219512h-12.195121951219512zM121.95121951219512,292.6829268292683h12.195121951219512v12.195121951219512h-12.195121951219512zM158.53658536585365,292.6829268292683h12.195121951219512v12.195121951219512h-12.195121951219512zM195.1219512195122,292.6829268292683h12.195121951219512v12.195121951219512h-12.195121951219512zM219.5121951219512,292.6829268292683h12.195121951219512v12.195121951219512h-12.195121951219512zM268.2926829268293,292.6829268292683h12.195121951219512v12.195121951219512h-12.195121951219512zM280.4878048780488,292.6829268292683h12.195121951219512v12.195121951219512h-12.195121951219512zM292.6829268292683,292.6829268292683h12.195121951219512v12.195121951219512h-12.195121951219512zM304.8780487804878,292.6829268292683h12.195121951219512v12.195121951219512h-12.195121951219512zM317.0731707317073,292.6829268292683h12.195121951219512v12.195121951219512h-12.195121951219512zM341.4634146341464,292.6829268292683h12.195121951219512v12.195121951219512h-12.195121951219512zM353.6585365853659,292.6829268292683h12.195121951219512v12.195121951219512h-12.195121951219512zM365.8536585365854,292.6829268292683h12.195121951219512v12.195121951219512h-12.195121951219512zM390.2439024390244,292.6829268292683h12.195121951219512v12.195121951219512h-12.195121951219512zM402.4390243902439,292.6829268292683h12.195121951219512v12.195121951219512h-12.195121951219512zM48.78048780487805,304.8780487804878h12.195121951219512v12.195121951219512h-12.195121951219512zM97.5609756097561,304.8780487804878h12.195121951219512v12.195121951219512h-12.195121951219512zM134.14634146341464,304.8780487804878h12.195121951219512v12.195121951219512h-12.195121951219512zM182.9268292682927,304.8780487804878h12.195121951219512v12.195121951219512h-12.195121951219512zM219.5121951219512,304.8780487804878h12.195121951219512v12.195121951219512h-12.195121951219512zM243.90243902439025,304.8780487804878h12.195121951219512v12.195121951219512h-12.195121951219512zM268.2926829268293,304.8780487804878h12.195121951219512v12.195121951219512h-12.195121951219512zM280.4878048780488,304.8780487804878h12.195121951219512v12.195121951219512h-12.195121951219512zM292.6829268292683,304.8780487804878h12.195121951219512v12.195121951219512h-12.195121951219512zM304.8780487804878,304.8780487804878h12.195121951219512v12.195121951219512h-12.195121951219512zM317.0731707317073,304.8780487804878h12.195121951219512v12.195121951219512h-12.195121951219512zM390.2439024390244,304.8780487804878h12.195121951219512v12.195121951219512h-12.195121951219512zM439.0243902439024,304.8780487804878h12.195121951219512v12.195121951219512h-12.195121951219512zM48.78048780487805,317.0731707317073h12.195121951219512v12.195121951219512h-12.195121951219512zM73.17073170731707,317.0731707317073h12.195121951219512v12.195121951219512h-12.195121951219512zM85.3658536585366,317.0731707317073h12.195121951219512v12.195121951219512h-12.195121951219512zM109.7560975609756,317.0731707317073h12.195121951219512v12.195121951219512h-12.195121951219512zM121.95121951219512,317.0731707317073h12.195121951219512v12.195121951219512h-12.195121951219512zM146.34146341463415,317.0731707317073h12.195121951219512v12.195121951219512h-12.195121951219512zM207.3170731707317,317.0731707317073h12.195121951219512v12.195121951219512h-12.195121951219512zM231.70731707317074,317.0731707317073h12.195121951219512v12.195121951219512h-12.195121951219512zM243.90243902439025,317.0731707317073h12.195121951219512v12.195121951219512h-12.195121951219512zM256.0975609756098,317.0731707317073h12.195121951219512v12.195121951219512h-12.195121951219512zM292.6829268292683,317.0731707317073h12.195121951219512v12.195121951219512h-12.195121951219512zM317.0731707317073,317.0731707317073h12.195121951219512v12.195121951219512h-12.195121951219512zM329.2682926829268,317.0731707317073h12.195121951219512v12.195121951219512h-12.195121951219512zM341.4634146341464,317.0731707317073h12.195121951219512v12.195121951219512h-12.195121951219512zM414.6341463414634,317.0731707317073h12.195121951219512v12.195121951219512h-12.195121951219512zM426.8292682926829,317.0731707317073h12.195121951219512v12.195121951219512h-12.195121951219512zM48.78048780487805,329.2682926829268h12.195121951219512v12.195121951219512h-12.195121951219512zM73.17073170731707,329.2682926829268h12.195121951219512v12.195121951219512h-12.195121951219512zM85.3658536585366,329.2682926829268h12.195121951219512v12.195121951219512h-12.195121951219512zM97.5609756097561,329.2682926829268h12.195121951219512v12.195121951219512h-12.195121951219512zM146.34146341463415,329.2682926829268h12.195121951219512v12.195121951219512h-12.195121951219512zM158.53658536585365,329.2682926829268h12.195121951219512v12.195121951219512h-12.195121951219512zM170.7317073170732,329.2682926829268h12.195121951219512v12.195121951219512h-12.195121951219512zM182.9268292682927,329.2682926829268h12.195121951219512v12.195121951219512h-12.195121951219512zM195.1219512195122,329.2682926829268h12.195121951219512v12.195121951219512h-12.195121951219512zM207.3170731707317,329.2682926829268h12.195121951219512v12.195121951219512h-12.195121951219512zM268.2926829268293,329.2682926829268h12.195121951219512v12.195121951219512h-12.195121951219512zM329.2682926829268,329.2682926829268h12.195121951219512v12.195121951219512h-12.195121951219512zM353.6585365853659,329.2682926829268h12.195121951219512v12.195121951219512h-12.195121951219512zM390.2439024390244,329.2682926829268h12.195121951219512v12.195121951219512h-12.195121951219512zM402.4390243902439,329.2682926829268h12.195121951219512v12.195121951219512h-12.195121951219512zM414.6341463414634,329.2682926829268h12.195121951219512v12.195121951219512h-12.195121951219512zM426.8292682926829,329.2682926829268h12.195121951219512v12.195121951219512h-12.195121951219512zM439.0243902439024,329.2682926829268h12.195121951219512v12.195121951219512h-12.195121951219512zM73.17073170731707,341.4634146341464h12.195121951219512v12.195121951219512h-12.195121951219512zM121.95121951219512,341.4634146341464h12.195121951219512v12.195121951219512h-12.195121951219512zM195.1219512195122,341.4634146341464h12.195121951219512v12.195121951219512h-12.195121951219512zM207.3170731707317,341.4634146341464h12.195121951219512v12.195121951219512h-12.195121951219512zM219.5121951219512,341.4634146341464h12.195121951219512v12.195121951219512h-12.195121951219512zM231.70731707317074,341.4634146341464h12.195121951219512v12.195121951219512h-12.195121951219512zM256.0975609756098,341.4634146341464h12.195121951219512v12.195121951219512h-12.195121951219512zM304.8780487804878,341.4634146341464h12.195121951219512v12.195121951219512h-12.195121951219512zM317.0731707317073,341.4634146341464h12.195121951219512v12.195121951219512h-12.195121951219512zM329.2682926829268,341.4634146341464h12.195121951219512v12.195121951219512h-12.195121951219512zM365.8536585365854,341.4634146341464h12.195121951219512v12.195121951219512h-12.195121951219512zM390.2439024390244,341.4634146341464h12.195121951219512v12.195121951219512h-12.195121951219512zM146.34146341463415,353.6585365853659h12.195121951219512v12.195121951219512h-12.195121951219512zM170.7317073170732,353.6585365853659h12.195121951219512v12.195121951219512h-12.195121951219512zM182.9268292682927,353.6585365853659h12.195121951219512v12.195121951219512h-12.195121951219512zM195.1219512195122,353.6585365853659h12.195121951219512v12.195121951219512h-12.195121951219512zM207.3170731707317,353.6585365853659h12.195121951219512v12.195121951219512h-12.195121951219512zM219.5121951219512,353.6585365853659h12.195121951219512v12.195121951219512h-12.195121951219512zM231.70731707317074,353.6585365853659h12.195121951219512v12.195121951219512h-12.195121951219512zM256.0975609756098,353.6585365853659h12.195121951219512v12.195121951219512h-12.195121951219512zM292.6829268292683,353.6585365853659h12.195121951219512v12.195121951219512h-12.195121951219512zM378.0487804878049,353.6585365853659h12.195121951219512v12.195121951219512h-12.195121951219512zM390.2439024390244,353.6585365853659h12.195121951219512v12.195121951219512h-12.195121951219512zM402.4390243902439,353.6585365853659h12.195121951219512v12.195121951219512h-12.195121951219512zM439.0243902439024,353.6585365853659h12.195121951219512v12.195121951219512h-12.195121951219512zM48.78048780487805,365.8536585365854h12.195121951219512v12.195121951219512h-12.195121951219512zM60.97560975609756,365.8536585365854h12.195121951219512v12.195121951219512h-12.195121951219512zM73.17073170731707,365.8536585365854h12.195121951219512v12.195121951219512h-12.195121951219512zM85.3658536585366,365.8536585365854h12.195121951219512v12.195121951219512h-12.195121951219512zM97.5609756097561,365.8536585365854h12.195121951219512v12.195121951219512h-12.195121951219512zM109.7560975609756,365.8536585365854h12.195121951219512v12.195121951219512h-12.195121951219512zM121.95121951219512,365.8536585365854h12.195121951219512v12.195121951219512h-12.195121951219512zM146.34146341463415,365.8536585365854h12.195121951219512v12.195121951219512h-12.195121951219512zM158.53658536585365,365.8536585365854h12.195121951219512v12.195121951219512h-12.195121951219512zM195.1219512195122,365.8536585365854h12.195121951219512v12.195121951219512h-12.195121951219512zM207.3170731707317,365.8536585365854h12.195121951219512v12.195121951219512h-12.195121951219512zM243.90243902439025,365.8536585365854h12.195121951219512v12.195121951219512h-12.195121951219512zM280.4878048780488,365.8536585365854h12.195121951219512v12.195121951219512h-12.195121951219512zM292.6829268292683,365.8536585365854h12.195121951219512v12.195121951219512h-12.195121951219512zM304.8780487804878,365.8536585365854h12.195121951219512v12.195121951219512h-12.195121951219512zM317.0731707317073,365.8536585365854h12.195121951219512v12.195121951219512h-12.195121951219512zM329.2682926829268,365.8536585365854h12.195121951219512v12.195121951219512h-12.195121951219512zM341.4634146341464,365.8536585365854h12.195121951219512v12.195121951219512h-12.195121951219512zM365.8536585365854,365.8536585365854h12.195121951219512v12.195121951219512h-12.195121951219512zM402.4390243902439,365.8536585365854h12.195121951219512v12.195121951219512h-12.195121951219512zM414.6341463414634,365.8536585365854h12.195121951219512v12.195121951219512h-12.195121951219512zM426.8292682926829,365.8536585365854h12.195121951219512v12.195121951219512h-12.195121951219512zM48.78048780487805,378.0487804878049h12.195121951219512v12.195121951219512h-12.195121951219512zM121.95121951219512,378.0487804878049h12.195121951219512v12.195121951219512h-12.195121951219512zM146.34146341463415,378.0487804878049h12.195121951219512v12.195121951219512h-12.195121951219512zM182.9268292682927,378.0487804878049h12.195121951219512v12.195121951219512h-12.195121951219512zM195.1219512195122,378.0487804878049h12.195121951219512v12.195121951219512h-12.195121951219512zM268.2926829268293,378.0487804878049h12.195121951219512v12.195121951219512h-12.195121951219512zM341.4634146341464,378.0487804878049h12.195121951219512v12.195121951219512h-12.195121951219512zM353.6585365853659,378.0487804878049h12.195121951219512v12.195121951219512h-12.195121951219512zM414.6341463414634,378.0487804878049h12.195121951219512v12.195121951219512h-12.195121951219512zM426.8292682926829,378.0487804878049h12.195121951219512v12.195121951219512h-12.195121951219512zM439.0243902439024,378.0487804878049h12.195121951219512v12.195121951219512h-12.195121951219512zM48.78048780487805,390.2439024390244h12.195121951219512v12.195121951219512h-12.195121951219512zM73.17073170731707,390.2439024390244h12.195121951219512v12.195121951219512h-12.195121951219512zM85.3658536585366,390.2439024390244h12.195121951219512v12.195121951219512h-12.195121951219512zM97.5609756097561,390.2439024390244h12.195121951219512v12.195121951219512h-12.195121951219512zM121.95121951219512,390.2439024390244h12.195121951219512v12.195121951219512h-12.195121951219512zM158.53658536585365,390.2439024390244h12.195121951219512v12.195121951219512h-12.195121951219512zM182.9268292682927,390.2439024390244h12.195121951219512v12.195121951219512h-12.195121951219512zM207.3170731707317,390.2439024390244h12.195121951219512v12.195121951219512h-12.195121951219512zM243.90243902439025,390.2439024390244h12.195121951219512v12.195121951219512h-12.195121951219512zM329.2682926829268,390.2439024390244h12.195121951219512v12.195121951219512h-12.195121951219512zM365.8536585365854,390.2439024390244h12.195121951219512v12.195121951219512h-12.195121951219512zM378.0487804878049,390.2439024390244h12.195121951219512v12.195121951219512h-12.195121951219512zM426.8292682926829,390.2439024390244h12.195121951219512v12.195121951219512h-12.195121951219512zM439.0243902439024,390.2439024390244h12.195121951219512v12.195121951219512h-12.195121951219512zM48.78048780487805,402.4390243902439h12.195121951219512v12.195121951219512h-12.195121951219512zM73.17073170731707,402.4390243902439h12.195121951219512v12.195121951219512h-12.195121951219512zM85.3658536585366,402.4390243902439h12.195121951219512v12.195121951219512h-12.195121951219512zM97.5609756097561,402.4390243902439h12.195121951219512v12.195121951219512h-12.195121951219512zM121.95121951219512,402.4390243902439h12.195121951219512v12.195121951219512h-12.195121951219512zM170.7317073170732,402.4390243902439h12.195121951219512v12.195121951219512h-12.195121951219512zM182.9268292682927,402.4390243902439h12.195121951219512v12.195121951219512h-12.195121951219512zM219.5121951219512,402.4390243902439h12.195121951219512v12.195121951219512h-12.195121951219512zM231.70731707317074,402.4390243902439h12.195121951219512v12.195121951219512h-12.195121951219512zM243.90243902439025,402.4390243902439h12.195121951219512v12.195121951219512h-12.195121951219512zM256.0975609756098,402.4390243902439h12.195121951219512v12.195121951219512h-12.195121951219512zM268.2926829268293,402.4390243902439h12.195121951219512v12.195121951219512h-12.195121951219512zM292.6829268292683,402.4390243902439h12.195121951219512v12.195121951219512h-12.195121951219512zM317.0731707317073,402.4390243902439h12.195121951219512v12.195121951219512h-12.195121951219512zM329.2682926829268,402.4390243902439h12.195121951219512v12.195121951219512h-12.195121951219512zM353.6585365853659,402.4390243902439h12.195121951219512v12.195121951219512h-12.195121951219512zM365.8536585365854,402.4390243902439h12.195121951219512v12.195121951219512h-12.195121951219512zM390.2439024390244,402.4390243902439h12.195121951219512v12.195121951219512h-12.195121951219512zM414.6341463414634,402.4390243902439h12.195121951219512v12.195121951219512h-12.195121951219512zM426.8292682926829,402.4390243902439h12.195121951219512v12.195121951219512h-12.195121951219512zM48.78048780487805,414.6341463414634h12.195121951219512v12.195121951219512h-12.195121951219512zM73.17073170731707,414.6341463414634h12.195121951219512v12.195121951219512h-12.195121951219512zM85.3658536585366,414.6341463414634h12.195121951219512v12.195121951219512h-12.195121951219512zM97.5609756097561,414.6341463414634h12.195121951219512v12.195121951219512h-12.195121951219512zM121.95121951219512,414.6341463414634h12.195121951219512v12.195121951219512h-12.195121951219512zM146.34146341463415,414.6341463414634h12.195121951219512v12.195121951219512h-12.195121951219512zM195.1219512195122,414.6341463414634h12.195121951219512v12.195121951219512h-12.195121951219512zM231.70731707317074,414.6341463414634h12.195121951219512v12.195121951219512h-12.195121951219512zM243.90243902439025,414.6341463414634h12.195121951219512v12.195121951219512h-12.195121951219512zM256.0975609756098,414.6341463414634h12.195121951219512v12.195121951219512h-12.195121951219512zM268.2926829268293,414.6341463414634h12.195121951219512v12.195121951219512h-12.195121951219512zM280.4878048780488,414.6341463414634h12.195121951219512v12.195121951219512h-12.195121951219512zM292.6829268292683,414.6341463414634h12.195121951219512v12.195121951219512h-12.195121951219512zM304.8780487804878,414.6341463414634h12.195121951219512v12.195121951219512h-12.195121951219512zM341.4634146341464,414.6341463414634h12.195121951219512v12.195121951219512h-12.195121951219512zM365.8536585365854,414.6341463414634h12.195121951219512v12.195121951219512h-12.195121951219512zM402.4390243902439,414.6341463414634h12.195121951219512v12.195121951219512h-12.195121951219512zM48.78048780487805,426.8292682926829h12.195121951219512v12.195121951219512h-12.195121951219512zM121.95121951219512,426.8292682926829h12.195121951219512v12.195121951219512h-12.195121951219512zM146.34146341463415,426.8292682926829h12.195121951219512v12.195121951219512h-12.195121951219512zM182.9268292682927,426.8292682926829h12.195121951219512v12.195121951219512h-12.195121951219512zM219.5121951219512,426.8292682926829h12.195121951219512v12.195121951219512h-12.195121951219512zM231.70731707317074,426.8292682926829h12.195121951219512v12.195121951219512h-12.195121951219512zM243.90243902439025,426.8292682926829h12.195121951219512v12.195121951219512h-12.195121951219512zM256.0975609756098,426.8292682926829h12.195121951219512v12.195121951219512h-12.195121951219512zM280.4878048780488,426.8292682926829h12.195121951219512v12.195121951219512h-12.195121951219512zM329.2682926829268,426.8292682926829h12.195121951219512v12.195121951219512h-12.195121951219512zM353.6585365853659,426.8292682926829h12.195121951219512v12.195121951219512h-12.195121951219512zM365.8536585365854,426.8292682926829h12.195121951219512v12.195121951219512h-12.195121951219512zM378.0487804878049,426.8292682926829h12.195121951219512v12.195121951219512h-12.195121951219512zM414.6341463414634,426.8292682926829h12.195121951219512v12.195121951219512h-12.195121951219512zM48.78048780487805,439.0243902439024h12.195121951219512v12.195121951219512h-12.195121951219512zM60.97560975609756,439.0243902439024h12.195121951219512v12.195121951219512h-12.195121951219512zM73.17073170731707,439.0243902439024h12.195121951219512v12.195121951219512h-12.195121951219512zM85.3658536585366,439.0243902439024h12.195121951219512v12.195121951219512h-12.195121951219512zM97.5609756097561,439.0243902439024h12.195121951219512v12.195121951219512h-12.195121951219512zM109.7560975609756,439.0243902439024h12.195121951219512v12.195121951219512h-12.195121951219512zM121.95121951219512,439.0243902439024h12.195121951219512v12.195121951219512h-12.195121951219512zM146.34146341463415,439.0243902439024h12.195121951219512v12.195121951219512h-12.195121951219512zM170.7317073170732,439.0243902439024h12.195121951219512v12.195121951219512h-12.195121951219512zM219.5121951219512,439.0243902439024h12.195121951219512v12.195121951219512h-12.195121951219512zM231.70731707317074,439.0243902439024h12.195121951219512v12.195121951219512h-12.195121951219512zM243.90243902439025,439.0243902439024h12.195121951219512v12.195121951219512h-12.195121951219512zM256.0975609756098,439.0243902439024h12.195121951219512v12.195121951219512h-12.195121951219512zM292.6829268292683,439.0243902439024h12.195121951219512v12.195121951219512h-12.195121951219512zM341.4634146341464,439.0243902439024h12.195121951219512v12.195121951219512h-12.195121951219512zM414.6341463414634,439.0243902439024h12.195121951219512v12.195121951219512h-12.195121951219512zM426.8292682926829,439.0243902439024h12.195121951219512v12.195121951219512h-12.195121951219512z"/><rect x="213.71951219512195" y="213.71951219512195" width="72.5609756097561" height="72.5609756097561" fill="#e8f5e9"/><image x="219.8170731707317" y="219.8170731707317" width="60.36585365853659" height="60.36585365853659" href="https://image-service-cdn.seek.com.au/1bc3d061b5b9045b5586989008d4ce274a9ddb49/f3c5292cec0e05e4272d9bf9146f390d366481d0" preserveAspectRatio="xMidYMid meet"/></svg>