<svg xmlns="http://www.w3.org/2000/svg" viewBox="0 0 500 500" width="500" height="500"><rect width="500" height="500" fill="#ffffff"/><rect x="54.054054054054056" y="54.054054054054056" width="13.513513513513514" height="13.513513513513514" fill="#000000"/><rect x="67.56756756756756" y="54.054054054054056" width="13.513513513513514" height="13.513513513513514" fill="#000000"/><rect x="81.08108108108108" y="54.054054054054056" width="13.513513513513514" height="13.513513513513514" fill="#000000"/><rect x="94.5945945945946" y="54.054054054054056" width="13.513513513513514" height="13.513513513513514" fill="#000000"/><rect x="108.10810810810811" y="54.054054054054056" width="13.513513513513514" height="13.513513513513514" fill="#000000"/><rect x="121.62162162162163" y="54.054054054054056" width="13.513513513513514" height="13.513513513513514" fill="#000000"/><rect x="135.13513513513513" y="54.054054054054056" width="13.513513513513514" height="13.513513513513514" fill="#000000"/><circle cx="182.43243243243245" cy="60.810810810810814" r="6.081081081081082" fill="#000000"/><circle cx="195.94594594594597" cy="60.810810810810814" r="6.081081081081082" fill="#000000"/><circle cx="222.97297297297297" cy="60.810810810810814" r="6.081081081081082" fill="#000000"/><circle cx="236.48648648648648" cy="60.810810810810814" r="6.081081081081082" fill="#000000"/><circle cx="250" cy="60.810810810810814" r="6.081081081081082" fill="#000000"/><circle cx="263.51351351351354" cy="60.810810810810814" r="6.081081081081082" fill="#000000"/><circle cx="277.02702702702703" cy="60.810810810810814" r="6.081081081081082" fill="#000000"/><circle cx="331.0810810810811" cy="60.810810810810814" r="6.081081081081082" fill="#000000"/><rect x="351.35135135135135" y="54.054054054054056" width="13.513513513513514" height="13.513513513513514" fill="#000000"/><rect x="364.8648648648649" y="54.054054054054056" width="13.513513513513514" height="13.513513513513514" fill="#000000"/><rect x="378.3783783783784" y="54.054054054054056" width="13.513513513513514" height="13.513513513513514" fill="#000000"/><rect x="391.89189189189193" y="54.054054054054056" width="13.513513513513514" height="13.513513513513514" fill="#000000"/><rect x="405.4054054054054" y="54.054054054054056" width="13.513513513513514" height="13.513513513513514" fill="#000000"/><rect x="418.91891891891896" y="54.054054054054056" width="13.513513513513514" height="13.513513513513514" fill="#000000"/><rect x="432.43243243243245" y="54.054054054054056" width="13.513513513513514" height="13.513513513513514" fill="#000000"/><rect x="54.054054054054056" y="67.56756756756756" width="13.513513513513514" height="13.513513513513514" fill="#000000"/><rect x="135.13513513513513" y="67.56756756756756" width="13.513513513513514" height="13.513513513513514" fill="#000000"/><circle cx="182.43243243243245" cy="74.32432432432432" r="6.081081081081082" fill="#000000"/><circle cx="222.97297297297297" cy="74.32432432432432" r="6.081081081081082" fill="#000000"/><circle cx="236.48648648648648" cy="74.32432432432432" r="6.081081081081082" fill="#000000"/><circle cx="250" cy="74.32432432432432" r="6.081081081081082" fill="#000000"/><circle cx="290.5405405405406" cy="74.32432432432432" r="6.081081081081082" fill="#000000"/><circle cx="304.05405405405406" cy="74.32432432432432" r="6.081081081081082" fill="#000000"/><circle cx="317.5675675675676" cy="74.32432432432432" r="6.081081081081082" fill="#000000"/><rect x="351.35135135135135" y="67.56756756756756" width="13.513513513513514" height="13.513513513513514" fill="#000000"/><rect x="432.43243243243245" y="67.56756756756756" width="13.513513513513514" height="13.513513513513514" fill="#000000"/><rect x="54.054054054054056" y="81.08108108108108" width="13.513513513513514" height="13.513513513513514" fill="#000000"/><rect x="81.08108108108108" y="81.08108108108108" width="13.513513513513514" height="13.513513513513514" fill="#000000"/><rect x="94.5945945945946" y="81.08108108108108" width="13.513513513513514" height="13.513513513513514" fill="#000000"/><rect x="108.10810810810811" y="81.08108108108108" width="13.513513513513514" height="13.513513513513514" fill="#000000"/><rect x="135.13513513513513" y="81.08108108108108" width="13.513513513513514" height="13.513513513513514" fill="#000000"/><circle cx="168.91891891891893" cy="87.83783783783784" r="6.081081081081082" fill="#000000"/><circle cx="209.45945945945948" cy="87.83783783783784" r="6.081081081081082" fill="#000000"/><circle cx="222.97297297297297" cy="87.83783783783784" r="6.081081081081082" fill="#000000"/><circle cx="236.48648648648648" cy="87.83783783783784" r="6.081081081081082" fill="#000000"/><circle cx="250" cy="87.83783783783784" r="6.081081081081082" fill="#000000"/><circle cx="263.51351351351354" cy="87.83783783783784" r="6.081081081081082" fill="#000000"/><circle cx="277.02702702702703" cy="87.83783783783784" r="6.081081081081082" fill="#000000"/><circle cx="304.05405405405406" cy="87.83783783783784" r="6.081081081081082" fill="#000000"/><circle cx="331.0810810810811" cy="87.83783783783784" r="6.081081081081082" fill="#000000"/><rect x="351.35135135135135" y="81.08108108108108" width="13.513513513513514" height="13.513513513513514" fill="#000000"/><rect x="378.3783783783784" y="81.08108108108108" width="13.513513513513514" height="13.513513513513514" fill="#000000"/><rect x="391.89189189189193" y="81.08108108108108" width="13.513513513513514" height="13.513513513513514" fill="#000000"/><rect x="405.4054054054054" y="81.08108108108108" width="13.513513513513514" height="13.513513513513514" fill="#000000"/><rect x="432.43243243243245" y="81.08108108108108" width="13.513513513513514" height="13.513513513513514" fill="#000000"/><rect x="54.054054054054056" y="94.5945945945946" width="13.513513513513514" height="13.513513513513514" fill="#000000"/><rect x="81.08108108108108" y="94.5945945945946" width="13.513513513513514" height="13.513513513513514" fill="#000000"/><rect x="94.5945945945946" y="94.5945945945946" width="13.513513513513514" height="13.513513513513514" fill="#000000"/><rect x="108.10810810810811" y="94.5945945945946" width="13.513513513513514" height="13.513513513513514" fill="#000000"/><rect x="135.13513513513513" y="94.5945945945946" width="13.513513513513514" height="13.513513513513514" fill="#000000"/><circle cx="168.91891891891893" cy="101.35135135135135" r="6.081081081081082" fill="#000000"/><circle cx="182.43243243243245" cy="101.35135135135135" r="6.081081081081082" fill="#000000"/><circle cx="195.94594594594597" cy="101.35135135135135" r="6.081081081081082" fill="#000000"/><circle cx="250" cy="101.35135135135135" r="6.081081081081082" fill="#000000"/><circle cx="263.51351351351354" cy="101.35135135135135" r="6.081081081081082" fill="#000000"/><circle cx="277.02702702702703" cy="101.35135135135135" r="6.081081081081082" fill="#000000"/><circle cx="290.5405405405406" cy="101.35135135135135" r="6.081081081081082" fill="#000000"/><circle cx="304.05405405405406" cy="101.35135135135135" r="6.081081081081082" fill="#000000"/><rect x="351.35135135135135" y="94.5945945945946" width="13.513513513513514" height="13.513513513513514" fill="#000000"/><rect x="378.3783783783784" y="94.5945945945946" width="13.513513513513514" height="13.513513513513514" fill="#000000"/><rect x="391.89189189189193" y="94.5945945945946" width="13.513513513513514" height="13.513513513513514" fill="#000000"/><rect x="405.4054054054054" y="94.5945945945946" width="13.513513513513514" height="13.513513513513514" fill="#000000"/><rect x="432.43243243243245" y="94.5945945945946" width="13.513513513513514" height="13.513513513513514" fill="#000000"/><rect x="54.054054054054056" y="108.10810810810811" width="13.513513513513514" height="13.513513513513514" fill="#000000"/><rect x="81.08108108108108" y="108.10810810810811" width="13.513513513513514" height="13.513513513513514" fill="#000000"/><rect x="94.5945945945946" y="108.10810810810811" width="13.513513513513514" height="13.513513513513514" fill="#000000"/><rect x="108.10810810810811" y="108.10810810810811" width="13.513513513513514" height="13.513513513513514" fill="#000000"/><rect x="135.13513513513513" y="108.10810810810811" width="13.513513513513514" height="13.513513513513514" fill="#000000"/><circle cx="182.43243243243245" cy="114.86486486486487" r="6.081081081081082" fill="#000000"/><circle cx="195.94594594594597" cy="114.86486486486487" r="6.081081081081082" fill="#000000"/><circle cx="222.97297297297297" cy="114.86486486486487" r="6.081081081081082" fill="#000000"/><circle cx="236.48648648648648" cy="114.86486486486487" r="6.081081081081082" fill="#000000"/><circle cx="250" cy="114.86486486486487" r="6.081081081081082" fill="#000000"/><circle cx="277.02702702702703" cy="114.86486486486487" r="6.081081081081082" fill="#000000"/><circle cx="317.5675675675676" cy="114.86486486486487" r="6.081081081081082" fill="#000000"/><rect x="351.35135135135135" y="108.10810810810811" width="13.513513513513514" height="13.513513513513514" fill="#000000"/><rect x="378.3783783783784" y="108.10810810810811" width="13.513513513513514" height="13.513513513513514" fill="#000000"/><rect x="391.89189189189193" y="108.10810810810811" width="13.513513513513514" height="13.513513513513514" fill="#000000"/><rect x="405.4054054054054" y="108.10810810810811" width="13.513513513513514" height="13.513513513513514" fill="#000000"/><rect x="432.43243243243245" y="108.10810810810811" width="13.513513513513514" height="13.513513513513514" fill="#000000"/><rect x="54.054054054054056" y="121.62162162162163" width="13.513513513513514" height="13.513513513513514" fill="#000000"/><rect x="135.13513513513513" y="121.62162162162163" width="13.513513513513514" height="13.513513513513514" fill="#000000"/><circle cx="182.43243243243245" cy="128.3783783783784" r="6.081081081081082" fill="#000000"/><circle cx="209.45945945945948" cy="128.3783783783784" r="6.081081081081082" fill="#000000"/><circle cx="222.97297297297297" cy="128.3783783783784" r="6.081081081081082" fill="#000000"/><circle cx="250" cy="128.3783783783784" r="6.081081081081082" fill="#000000"/><circle cx="263.51351351351354" cy="128.3783783783784" r="6.081081081081082" fill="#000000"/><rect x="351.35135135135135" y="121.62162162162163" width="13.513513513513514" height="13.513513513513514" fill="#000000"/><rect x="432.43243243243245" y="121.62162162162163" width="13.513513513513514" height="13.513513513513514" fill="#000000"/><rect x="54.054054054054056" y="135.13513513513513" width="13.513513513513514" height="13.513513513513514" fill="#000000"/><rect x="67.56756756756756" y="135.13513513513513" width="13.513513513513514" height="13.513513513513514" fill="#000000"/><rect x="81.08108108108108" y="135.13513513513513" width="13.513513513513514" height="13.513513513513514" fill="#000000"/><rect x="94.5945945945946" y="135.13513513513513" width="13.513513513513514" height="13.513513513513514" fill="#000000"/><rect x="108.10810810810811" y="135.13513513513513" width="13.513513513513514" height="13.513513513513514" fill="#000000"/><rect x="121.62162162162163" y="135.13513513513513" width="13.513513513513514" height="13.513513513513514" fill="#000000"/><rect x="135.13513513513513" y="135.13513513513513" width="13.513513513513514" height="13.513513513513514" fill="#000000"/><circle cx="168.91891891891893" cy="141.8918918918919" r="6.081081081081082" fill="#000000"/><circle cx="195.94594594594597" cy="141.8918918918919" r="6.081081081081082" fill="#000000"/><circle cx="222.97297297297297" cy="141.8918918918919" r="6.081081081081082" fill="#000000"/><circle cx="250" cy="141.8918918918919" r="6.081081081081082" fill="#000000"/><circle cx="277.02702702702703" cy="141.8918918918919" r="6.081081081081082" fill="#000000"/><circle cx="304.05405405405406" cy="141.8918918918919" r="6.081081081081082" fill="#000000"/><circle cx="331.0810810810811" cy="141.8918918918919" r="6.081081081081082" fill="#000000"/><rect x="351.35135135135135" y="135.13513513513513" width="13.513513513513514" height="13.513513513513514" fill="#000000"/><rect x="364.8648648648649" y="135.13513513513513" width="13.513513513513514" height="13.513513513513514" fill="#000000"/><rect x="378.3783783783784" y="135.13513513513513" width="13.513513513513514" height="13.513513513513514" fill="#000000"/><rect x="391.89189189189193" y="135.13513513513513" width="13.513513513513514" height="13.513513513513514" fill="#000000"/><rect x="405.4054054054054" y="135.13513513513513" width="13.513513513513514" height="13.513513513513514" fill="#000000"/><rect x="418.91891891891896" y="135.13513513513513" width="13.513513513513514" height="13.513513513513514" fill="#000000"/><rect x="432.43243243243245" y="135.13513513513513" width="13.513513513513514" height="13.513513513513514" fill="#000000"/><circle cx="209.45945945945948" cy="155.40540540540542" r="6.081081081081082" fill="#000000"/><circle cx="277.02702702702703" cy="155.40540540540542" r="6.081081081081082" fill="#000000"/><circle cx="290.5405405405406" cy="155.40540540540542" r="6.081081081081082" fill="#000000"/><circle cx="304.05405405405406" cy="155.40540540540542" r="6.081081081081082" fill="#000000"/><circle cx="101.35135135135135" cy="168.91891891891893" r="6.081081081081082" fill="#000000"/><circle cx="114.86486486486487" cy="168.91891891891893" r="6.081081081081082" fill="#000000"/><circle cx="141.8918918918919" cy="168.91891891891893" r="6.081081081081082" fill="#000000"/><circle cx="155.40540540540542" cy="168.91891891891893" r="6.081081081081082" fill="#000000"/><circle cx="182.43243243243245" cy="168.91891891891893" r="6.081081081081082" fill="#000000"/><circle cx="222.97297297297297" cy="168.91891891891893" r="6.081081081081082" fill="#000000"/><circle cx="236.48648648648648" cy="168.91891891891893" r="6.081081081081082" fill="#000000"/><circle cx="250" cy="168.91891891891893" r="6.081081081081082" fill="#000000"/><circle cx="263.51351351351354" cy="168.91891891891893" r="6.081081081081082" fill="#000000"/><circle cx="290.5405405405406" cy="168.91891891891893" r="6.081081081081082" fill="#000000"/><circle cx="304.05405405405406" cy="168.91891891891893" r="6.081081081081082" fill="#000000"/><circle cx="317.5675675675676" cy="168.91891891891893" r="6.081081081081082" fill="#000000"/><circle cx="358.1081081081081" cy="168.91891891891893" r="6.081081081081082" fill="#000000"/><circle cx="385.13513513513516" cy="168.91891891891893" r="6.081081081081082" fill="#000000"/><circle cx="398.64864864864865" cy="168.91891891891893" r="6.081081081081082" fill="#000000"/><circle cx="60.810810810810814" cy="182.43243243243245" r="6.081081081081082" fill="#000000"/><circle cx="87.83783783783784" cy="182.43243243243245" r="6.081081081081082" fill="#000000"/><circle cx="114.86486486486487" cy="182.43243243243245" r="6.081081081081082" fill="#000000"/><circle cx="155.40540540540542" cy="182.43243243243245" r="6.081081081081082" fill="#000000"/><circle cx="182.43243243243245" cy="182.43243243243245" r="6.081081081081082" fill="#000000"/><circle cx="209.45945945945948" cy="182.43243243243245" r="6.081081081081082" fill="#000000"/><circle cx="250" cy="182.43243243243245" r="6.081081081081082" fill="#000000"/><circle cx="263.51351351351354" cy="182.43243243243245" r="6.081081081081082" fill="#000000"/><circle cx="277.02702702702703" cy="182.43243243243245" r="6.081081081081082" fill="#000000"/><circle cx="304.05405405405406" cy="182.43243243243245" r="6.081081081081082" fill="#000000"/><circle cx="344.5945945945946" cy="182.43243243243245" r="6.081081081081082" fill="#000000"/><circle cx="412.1621621621622" cy="182.43243243243245" r="6.081081081081082" fill="#000000"/><circle cx="425.6756756756757" cy="182.43243243243245" r="6.081081081081082" fill="#000000"/><circle cx="60.810810810810814" cy="195.94594594594597" r="6.081081081081082" fill="#000000"/><circle cx="87.83783783783784" cy="195.94594594594597" r="6.081081081081082" fill="#000000"/><circle cx="101.35135135135135" cy="195.94594594594597" r="6.081081081081082" fill="#000000"/><circle cx="128.3783783783784" cy="195.94594594594597" r="6.081081081081082" fill="#000000"/><circle cx="141.8918918918919" cy="195.94594594594597" r="6.081081081081082" fill="#000000"/><circle cx="182.43243243243245" cy="195.94594594594597" r="6.081081081081082" fill="#000000"/><circle cx="317.5675675675676" cy="195.94594594594597" r="6.081081081081082" fill="#000000"/><circle cx="331.0810810810811" cy="195.94594594594597" r="6.081081081081082" fill="#000000"/><circle cx="344.5945945945946" cy="195.94594594594597" r="6.081081081081082" fill="#000000"/><circle cx="358.1081081081081" cy="195.94594594594597" r="6.081081081081082" fill="#000000"/><circle cx="371.6216216216216" cy="195.94594594594597" r="6.081081081081082" fill="#000000"/><circle cx="385.13513513513516" cy="195.94594594594597" r="6.081081081081082" fill="#000000"/><circle cx="74.32432432432432" cy="209.45945945945948" r="6.081081081081082" fill="#000000"/><circle cx="87.83783783783784" cy="209.45945945945948" r="6.081081081081082" fill="#000000"/><circle cx="182.43243243243245" cy="209.45945945945948" r="6.081081081081082" fill="#000000"/><circle cx="344.5945945945946" cy="209.45945945945948" r="6.081081081081082" fill="#000000"/><circle cx="371.6216216216216" cy="209.45945945945948" r="6.081081081081082" fill="#000000"/><circle cx="439.1891891891892" cy="209.45945945945948" r="6.081081081081082" fill="#000000"/><circle cx="60.810810810810814" cy="222.97297297297297" r="6.081081081081082" fill="#000000"/><circle cx="87.83783783783784" cy="222.97297297297297" r="6.081081081081082" fill="#000000"/><circle cx="101.35135135135135" cy="222.97297297297297" r="6.081081081081082" fill="#000000"/><circle cx="141.8918918918919" cy="222.97297297297297" r="6.081081081081082" fill="#000000"/><circle cx="168.91891891891893" cy="222.97297297297297" r="6.081081081081082" fill="#000000"/><circle cx="182.43243243243245" cy="222.97297297297297" r="6.081081081081082" fill="#000000"/><circle cx="331.0810810810811" cy="222.97297297297297" r="6.081081081081082" fill="#000000"/><circle cx="344.5945945945946" cy="222.97297297297297" r="6.081081081081082" fill="#000000"/><circle cx="358.1081081081081" cy="222.97297297297297" r="6.081081081081082" fill="#000000"/><circle cx="371.6216216216216" cy="222.97297297297297" r="6.081081081081082" fill="#000000"/><circle cx="398.64864864864865" cy="222.97297297297297" r="6.081081081081082" fill="#000000"/><circle cx="425.6756756756757" cy="222.97297297297297" r="6.081081081081082" fill="#000000"/><circle cx="60.810810810810814" cy="236.48648648648648" r="6.081081081081082" fill="#000000"/><circle cx="74.32432432432432" cy="236.48648648648648" r="6.081081081081082" fill="#000000"/><circle cx="101.35135135135135" cy="236.48648648648648" r="6.081081081081082" fill="#000000"/><circle cx="128.3783783783784" cy="236.48648648648648" r="6.081081081081082" fill="#000000"/><circle cx="317.5675675675676" cy="236.48648648648648" r="6.081081081081082" fill="#000000"/><circle cx="331.0810810810811" cy="236.48648648648648" r="6.081081081081082" fill="#000000"/><circle cx="344.5945945945946" cy="236.48648648648648" r="6.081081081081082" fill="#000000"/><circle cx="358.1081081081081" cy="236.48648648648648" r="6.081081081081082" fill="#000000"/><circle cx="385.13513513513516" cy="236.48648648648648" r="6.081081081081082" fill="#000000"/><circle cx="412.1621621621622" cy="236.48648648648648" r="6.081081081081082" fill="#000000"/><circle cx="439.1891891891892" cy="236.48648648648648" r="6.081081081081082" fill="#000000"/><circle cx="60.810810810810814" cy="250" r="6.081081081081082" fill="#000000"/><circle cx="74.32432432432432" cy="250" r="6.081081081081082" fill="#000000"/><circle cx="87.83783783783784" cy="250" r="6.081081081081082" fill="#000000"/><circle cx="101.35135135135135" cy="250" r="6.081081081081082" fill="#000000"/><circle cx="114.86486486486487" cy="250" r="6.081081081081082" fill="#000000"/><circle cx="141.8918918918919" cy="250" r="6.081081081081082" fill="#000000"/><circle cx="155.40540540540542" cy="250" r="6.081081081081082" fill="#000000"/><circle cx="168.91891891891893" cy="250" r="6.081081081081082" fill="#000000"/><circle cx="182.43243243243245" cy="250" r="6.081081081081082" fill="#000000"/><circle cx="331.0810810810811" cy="250" r="6.081081081081082" fill="#000000"/><circle cx="385.13513513513516" cy="250" r="6.081081081081082" fill="#000000"/><circle cx="398.64864864864865" cy="250" r="6.081081081081082" fill="#000000"/><circle cx="439.1891891891892" cy="250" r="6.081081081081082" fill="#000000"/><circle cx="60.810810810810814" cy="263.51351351351354" r="6.081081081081082" fill="#000000"/><circle cx="87.83783783783784" cy="263.51351351351354" r="6.081081081081082" fill="#000000"/><circle cx="114.86486486486487" cy="263.51351351351354" r="6.081081081081082" fill="#000000"/><circle cx="155.40540540540542" cy="263.51351351351354" r="6.081081081081082" fill="#000000"/><circle cx="182.43243243243245" cy="263.51351351351354" r="6.081081081081082" fill="#000000"/><circle cx="358.1081081081081" cy="263.51351351351354" r="6.081081081081082" fill="#000000"/><circle cx="371.6216216216216" cy="263.51351351351354" r="6.081081081081082" fill="#000000"/><circle cx="385.13513513513516" cy="263.51351351351354" r="6.081081081081082" fill="#000000"/><circle cx="398.64864864864865" cy="263.51351351351354" r="6.081081081081082" fill="#000000"/><circle cx="412.1621621621622" cy="263.51351351351354" r="6.081081081081082" fill="#000000"/><circle cx="425.6756756756757" cy="263.51351351351354" r="6.081081081081082" fill="#000000"/><circle cx="439.1891891891892" cy="263.51351351351354" r="6.081081081081082" fill="#000000"/><circle cx="60.810810810810814" cy="277.02702702702703" r="6.081081081081082" fill="#000000"/><circle cx="87.83783783783784" cy="277.02702702702703" r="6.081081081081082" fill="#000000"/><circle cx="101.35135135135135" cy="277.02702702702703" r="6.081081081081082" fill="#000000"/><circle cx="114.86486486486487" cy="277.02702702702703" r="6.081081081081082" fill="#000000"/><circle cx="141.8918918918919" cy="277.02702702702703" r="6.081081081081082" fill="#000000"/><circle cx="182.43243243243245" cy="277.02702702702703" r="6.081081081081082" fill="#000000"/><circle cx="317.5675675675676" cy="277.02702702702703" r="6.081081081081082" fill="#000000"/><circle cx="344.5945945945946" cy="277.02702702702703" r="6.081081081081082" fill="#000000"/><circle cx="358.1081081081081" cy="277.02702702702703" r="6.081081081081082" fill="#000000"/><circle cx="398.64864864864865" cy="277.02702702702703" r="6.081081081081082" fill="#000000"/><circle cx="60.810810810810814" cy="290.5405405405406" r="6.081081081081082" fill="#000000"/><circle cx="168.91891891891893" cy="290.5405405405406" r="6.081081081081082" fill="#000000"/><circle cx="182.43243243243245" cy="290.5405405405406" r="6.081081081081082" fill="#000000"/><circle cx="317.5675675675676" cy="290.5405405405406" r="6.081081081081082" fill="#000000"/><circle cx="331.0810810810811" cy="290.5405405405406" r="6.081081081081082" fill="#000000"/><circle cx="358.1081081081081" cy="290.5405405405406" r="6.081081081081082" fill="#000000"/><circle cx="398.64864864864865" cy="290.5405405405406" r="6.081081081081082" fill="#000000"/><circle cx="412.1621621621622" cy="290.5405405405406" r="6.081081081081082" fill="#000000"/><circle cx="60.810810810810814" cy="304.05405405405406" r="6.081081081081082" fill="#000000"/><circle cx="74.32432432432432" cy="304.05405405405406" r="6.081081081081082" fill="#000000"/><circle cx="87.83783783783784" cy="304.05405405405406" r="6.081081081081082" fill="#000000"/><circle cx="101.35135135135135" cy="304.05405405405406" r="6.081081081081082" fill="#000000"/><circle cx="114.86486486486487" cy="304.05405405405406" r="6.081081081081082" fill="#000000"/><circle cx="128.3783783783784" cy="304.05405405405406" r="6.081081081081082" fill="#000000"/><circle cx="141.8918918918919" cy="304.05405405405406" r="6.081081081081082" fill="#000000"/><circle cx="155.40540540540542" cy="304.05405405405406" r="6.081081081081082" fill="#000000"/><circle cx="182.43243243243245" cy="304.05405405405406" r="6.081081081081082" fill="#000000"/><circle cx="331.0810810810811" cy="304.05405405405406" r="6.081081081081082" fill="#000000"/><circle cx="358.1081081081081" cy="304.05405405405406" r="6.081081081081082" fill="#000000"/><circle cx="371.6216216216216" cy="304.05405405405406" r="6.081081081081082" fill="#000000"/><circle cx="385.13513513513516" cy="304.05405405405406" r="6.081081081081082" fill="#000000"/><circle cx="398.64864864864865" cy="304.05405405405406" r="6.081081081081082" fill="#000000"/><circle cx="439.1891891891892" cy="304.05405405405406" r="6.081081081081082" fill="#000000"/><circle cx="60.810810810810814" cy="317.5675675675676" r="6.081081081081082" fill="#000000"/><circle cx="74.32432432432432" cy="317.5675675675676" r="6.081081081081082" fill="#000000"/><circle cx="101.35135135135135" cy="317.5675675675676" r="6.081081081081082" fill="#000000"/><circle cx="128.3783783783784" cy="317.5675675675676" r="6.081081081081082" fill="#000000"/><circle cx="155.40540540540542" cy="317.5675675675676" r="6.081081081081082" fill="#000000"/><circle cx="168.91891891891893" cy="317.5675675675676" r="6.081081081081082" fill="#000000"/><circle cx="209.45945945945948" cy="317.5675675675676" r="6.081081081081082" fill="#000000"/><circle cx="304.05405405405406" cy="317.5675675675676" r="6.081081081081082" fill="#000000"/><circle cx="331.0810810810811" cy="317.5675675675676" r="6.081081081081082" fill="#000000"/><circle cx="371.6216216216216" cy="317.5675675675676" r="6.081081081081082" fill="#000000"/><circle cx="412.1621621621622" cy="317.5675675675676" r="6.081081081081082" fill="#000000"/><circle cx="439.1891891891892" cy="317.5675675675676" r="6.081081081081082" fill="#000000"/><circle cx="114.86486486486487" cy="331.0810810810811" r="6.081081081081082" fill="#000000"/><circle cx="128.3783783783784" cy="331.0810810810811" r="6.081081081081082" fill="#000000"/><circle cx="141.8918918918919" cy="331.0810810810811" r="6.081081081081082" fill="#000000"/><circle cx="155.40540540540542" cy="331.0810810810811" r="6.081081081081082" fill="#000000"/><circle cx="195.94594594594597" cy="331.0810810810811" r="6.081081081081082" fill="#000000"/><circle cx="236.48648648648648" cy="331.0810810810811" r="6.081081081081082" fill="#000000"/><circle cx="277.02702702702703" cy="331.0810810810811" r="6.081081081081082" fill="#000000"/><circle cx="290.5405405405406" cy="331.0810810810811" r="6.081081081081082" fill="#000000"/><circle cx="304.05405405405406" cy="331.0810810810811" r="6.081081081081082" fill="#000000"/><circle cx="317.5675675675676" cy="331.0810810810811" r="6.081081081081082" fill="#000000"/><circle cx="331.0810810810811" cy="331.0810810810811" r="6.081081081081082" fill="#000000"/><circle cx="358.1081081081081" cy="331.0810810810811" r="6.081081081081082" fill="#000000"/><circle cx="385.13513513513516" cy="331.0810810810811" r="6.081081081081082" fill="#000000"/><circle cx="398.64864864864865" cy="331.0810810810811" r="6.081081081081082" fill="#000000"/><circle cx="412.1621621621622" cy="331.0810810810811" r="6.081081081081082" fill="#000000"/><circle cx="425.6756756756757" cy="331.0810810810811" r="6.081081081081082" fill="#000000"/><circle cx="439.1891891891892" cy="331.0810810810811" r="6.081081081081082" fill="#000000"/><circle cx="168.91891891891893" cy="344.5945945945946" r="6.081081081081082" fill="#000000"/><circle cx="182.43243243243245" cy="344.5945945945946" r="6.081081081081082" fill="#000000"/><circle cx="195.94594594594597" cy="344.5945945945946" r="6.081081081081082" fill="#000000"/><circle cx="222.97297297297297" cy="344.5945945945946" r="6.081081081081082" fill="#000000"/><circle cx="236.48648648648648" cy="344.5945945945946" r="6.081081081081082" fill="#000000"/><circle cx="250" cy="344.5945945945946" r="6.081081081081082" fill="#000000"/><circle cx="263.51351351351354" cy="344.5945945945946" r="6.081081081081082" fill="#000000"/><circle cx="290.5405405405406" cy="344.5945945945946" r="6.081081081081082" fill="#000000"/><circle cx="304.05405405405406" cy="344.5945945945946" r="6.081081081081082" fill="#000000"/><circle cx="317.5675675675676" cy="344.5945945945946" r="6.081081081081082" fill="#000000"/><circle cx="331.0810810810811" cy="344.5945945945946" r="6.081081081081082" fill="#000000"/><circle cx="344.5945945945946" cy="344.5945945945946" r="6.081081081081082" fill="#000000"/><circle cx="398.64864864864865" cy="344.5945945945946" r="6.081081081081082" fill="#000000"/><circle cx="412.1621621621622" cy="344.5945945945946" r="6.081081081081082" fill="#000000"/><circle cx="425.6756756756757" cy="344.5945945945946" r="6.081081081081082" fill="#000000"/><rect x="54.054054054054056" y="351.35135135135135" width="13.513513513513514" height="13.513513513513514" fill="#000000"/><rect x="67.56756756756756" y="351.35135135135135" width="13.513513513513514" height="13.513513513513514" fill="#000000"/><rect x="81.08108108108108" y="351.35135135135135" width="13.513513513513514" height="13.513513513513514" fill="#000000"/><rect x="94.5945945945946" y="351.35135135135135" width="13.513513513513514" height="13.513513513513514" fill="#000000"/><rect x="108.10810810810811" y="351.35135135135135" width="13.513513513513514" height="13.513513513513514" fill="#000000"/><rect x="121.62162162162163" y="351.35135135135135" width="13.513513513513514" height="13.513513513513514" fill="#000000"/><rect x="135.13513513513513" y="351.35135135135135" width="13.513513513513514" height="13.513513513513514" fill="#000000"/><circle cx="182.43243243243245" cy="358.1081081081081" r="6.081081081081082" fill="#000000"/><circle cx="209.45945945945948" cy="358.1081081081081" r="6.081081081081082" fill="#000000"/><circle cx="222.97297297297297" cy="358.1081081081081" r="6.081081081081082" fill="#000000"/><circle cx="250" cy="358.1081081081081" r="6.081081081081082" fill="#000000"/><circle cx="263.51351351351354" cy="358.1081081081081" r="6.081081081081082" fill="#000000"/><circle cx="277.02702702702703" cy="358.1081081081081" r="6.081081081081082" fill="#000000"/><circle cx="290.5405405405406" cy="358.1081081081081" r="6.081081081081082" fill="#000000"/><circle cx="304.05405405405406" cy="358.1081081081081" r="6.081081081081082" fill="#000000"/><circle cx="331.0810810810811" cy="358.1081081081081" r="6.081081081081082" fill="#000000"/><circle cx="358.1081081081081" cy="358.1081081081081" r="6.081081081081082" fill="#000000"/><circle cx="385.13513513513516" cy="358.1081081081081" r="6.081081081081082" fill="#000000"/><circle cx="412.1621621621622" cy="358.1081081081081" r="6.081081081081082" fill="#000000"/><rect x="54.054054054054056" y="364.8648648648649" width="13.513513513513514" height="13.513513513513514" fill="#000000"/><rect x="135.13513513513513" y="364.8648648648649" width="13.513513513513514" height="13.513513513513514" fill="#000000"/><circle cx="209.45945945945948" cy="371.6216216216216" r="6.081081081081082" fill="#000000"/><circle cx="290.5405405405406" cy="371.6216216216216" r="6.081081081081082" fill="#000000"/><circle cx="304.05405405405406" cy="371.6216216216216" r="6.081081081081082" fill="#000000"/><circle cx="317.5675675675676" cy="371.6216216216216" r="6.081081081081082" fill="#000000"/><circle cx="344.5945945945946" cy="371.6216216216216" r="6.081081081081082" fill="#000000"/><circle cx="358.1081081081081" cy="371.6216216216216" r="6.081081081081082" fill="#000000"/><circle cx="398.64864864864865" cy="371.6216216216216" r="6.081081081081082" fill="#000000"/><circle cx="439.1891891891892" cy="371.6216216216216" r="6.081081081081082" fill="#000000"/><rect x="54.054054054054056" y="378.3783783783784" width="13.513513513513514" height="13.513513513513514" fill="#000000"/><rect x="81.08108108108108" y="378.3783783783784" width="13.513513513513514" height="13.513513513513514" fill="#000000"/><rect x="94.5945945945946" y="378.3783783783784" width="13.513513513513514" height="13.513513513513514" fill="#000000"/><rect x="108.10810810810811" y="378.3783783783784" width="13.513513513513514" height="13.513513513513514" fill="#000000"/><rect x="135.13513513513513" y="378.3783783783784" width="13.513513513513514" height="13.513513513513514" fill="#000000"/><circle cx="182.43243243243245" cy="385.13513513513516" r="6.081081081081082" fill="#000000"/><circle cx="195.94594594594597" cy="385.13513513513516" r="6.081081081081082" fill="#000000"/><circle cx="236.48648648648648" cy="385.13513513513516" r="6.081081081081082" fill="#000000"/><circle cx="250" cy="385.13513513513516" r="6.081081081081082" fill="#000000"/><circle cx="290.5405405405406" cy="385.13513513513516" r="6.081081081081082" fill="#000000"/><circle cx="317.5675675675676" cy="385.13513513513516" r="6.081081081081082" fill="#000000"/><circle cx="331.0810810810811" cy="385.13513513513516" r="6.081081081081082" fill="#000000"/><circle cx="344.5945945945946" cy="385.13513513513516" r="6.081081081081082" fill="#000000"/><circle cx="425.6756756756757" cy="385.13513513513516" r="6.081081081081082" fill="#000000"/><rect x="54.054054054054056" y="391.89189189189193" width="13.513513513513514" height="13.513513513513514" fill="#000000"/><rect x="81.08108108108108" y="391.89189189189193" width="13.513513513513514" height="13.513513513513514" fill="#000000"/><rect x="94.5945945945946" y="391.89189189189193" width="13.513513513513514" height="13.513513513513514" fill="#000000"/><rect x="108.10810810810811" y="391.89189189189193" width="13.513513513513514" height="13.513513513513514" fill="#000000"/><rect x="135.13513513513513" y="391.89189189189193" width="13.513513513513514" height="13.513513513513514" fill="#000000"/><circle cx="168.91891891891893" cy="398.64864864864865" r="6.081081081081082" fill="#000000"/><circle cx="182.43243243243245" cy="398.64864864864865" r="6.081081081081082" fill="#000000"/><circle cx="195.94594594594597" cy="398.64864864864865" r="6.081081081081082" fill="#000000"/><circle cx="209.45945945945948" cy="398.64864864864865" r="6.081081081081082" fill="#000000"/><circle cx="250" cy="398.64864864864865" r="6.081081081081082" fill="#000000"/><circle cx="263.51351351351354" cy="398.64864864864865" r="6.081081081081082" fill="#000000"/><circle cx="277.02702702702703" cy="398.64864864864865" r="6.081081081081082" fill="#000000"/><circle cx="317.5675675675676" cy="398.64864864864865" r="6.081081081081082" fill="#000000"/><circle cx="344.5945945945946" cy="398.64864864864865" r="6.081081081081082" fill="#000000"/><circle cx="358.1081081081081" cy="398.64864864864865" r="6.081081081081082" fill="#000000"/><circle cx="371.6216216216216" cy="398.64864864864865" r="6.081081081081082" fill="#000000"/><circle cx="398.64864864864865" cy="398.64864864864865" r="6.081081081081082" fill="#000000"/><circle cx="412.1621621621622" cy="398.64864864864865" r="6.081081081081082" fill="#000000"/><circle cx="425.6756756756757" cy="398.64864864864865" r="6.081081081081082" fill="#000000"/><rect x="54.054054054054056" y="405.4054054054054" width="13.513513513513514" height="13.513513513513514" fill="#000000"/><rect x="81.08108108108108" y="405.4054054054054" width="13.513513513513514" height="13.513513513513514" fill="#000000"/><rect x="94.5945945945946" y="405.4054054054054" width="13.513513513513514" height="13.513513513513514" fill="#000000"/><rect x="108.10810810810811" y="405.4054054054054" width="13.513513513513514" height="13.513513513513514" fill="#000000"/><rect x="135.13513513513513" y="405.4054054054054" width="13.513513513513514" height="13.513513513513514" fill="#000000"/><circle cx="168.91891891891893" cy="412.1621621621622" r="6.081081081081082" fill="#000000"/><circle cx="182.43243243243245" cy="412.1621621621622" r="6.081081081081082" fill="#000000"/><circle cx="195.94594594594597" cy="412.1621621621622" r="6.081081081081082" fill="#000000"/><circle cx="209.45945945945948" cy="412.1621621621622" r="6.081081081081082" fill="#000000"/><circle cx="222.97297297297297" cy="412.1621621621622" r="6.081081081081082" fill="#000000"/><circle cx="236.48648648648648" cy="412.1621621621622" r="6.081081081081082" fill="#000000"/><circle cx="250" cy="412.1621621621622" r="6.081081081081082" fill="#000000"/><circle cx="263.51351351351354" cy="412.1621621621622" r="6.081081081081082" fill="#000000"/><circle cx="277.02702702702703" cy="412.1621621621622" r="6.081081081081082" fill="#000000"/><circle cx="290.5405405405406" cy="412.1621621621622" r="6.081081081081082" fill="#000000"/><circle cx="344.5945945945946" cy="412.1621621621622" r="6.081081081081082" fill="#000000"/><circle cx="371.6216216216216" cy="412.1621621621622" r="6.081081081081082" fill="#000000"/><circle cx="385.13513513513516" cy="412.1621621621622" r="6.081081081081082" fill="#000000"/><circle cx="412.1621621621622" cy="412.1621621621622" r="6.081081081081082" fill="#000000"/><circle cx="425.6756756756757" cy="412.1621621621622" r="6.081081081081082" fill="#000000"/><circle cx="439.1891891891892" cy="412.1621621621622" r="6.081081081081082" fill="#000000"/><rect x="54.054054054054056" y="418.91891891891896" width="13.513513513513514" height="13.513513513513514" fill="#000000"/><rect x="135.13513513513513" y="418.91891891891896" width="13.513513513513514" height="13.513513513513514" fill="#000000"/><circle cx="222.97297297297297" cy="425.6756756756757" r="6.081081081081082" fill="#000000"/><circle cx="250" cy="425.6756756756757" r="6.081081081081082" fill="#000000"/><circle cx="263.51351351351354" cy="425.6756756756757" r="6.081081081081082" fill="#000000"/><circle cx="290.5405405405406" cy="425.6756756756757" r="6.081081081081082" fill="#000000"/><circle cx="304.05405405405406" cy="425.6756756756757" r="6.081081081081082" fill="#000000"/><circle cx="317.5675675675676" cy="425.6756756756757" r="6.081081081081082" fill="#000000"/><circle cx="344.5945945945946" cy="425.6756756756757" r="6.081081081081082" fill="#000000"/><circle cx="385.13513513513516" cy="425.6756756756757" r="6.081081081081082" fill="#000000"/><circle cx="398.64864864864865" cy="425.6756756756757" r="6.081081081081082" fill="#000000"/><circle cx="412.1621621621622" cy="425.6756756756757" r="6.081081081081082" fill="#000000"/><circle cx="439.1891891891892" cy="425.6756756756757" r="6.081081081081082" fill="#000000"/><rect x="54.054054054054056" y="432.43243243243245" width="13.513513513513514" height="13.513513513513514" fill="#000000"/><rect x="67.56756756756756" y="432.43243243243245" width="13.513513513513514" height="13.513513513513514" fill="#000000"/><rect x="81.08108108108108" y="432.43243243243245" width="13.513513513513514" height="13.513513513513514" fill="#000000"/><rect x="94.5945945945946" y="432.43243243243245" width="13.513513513513514" height="13.513513513513514" fill="#000000"/><rect x="108.10810810810811" y="432.43243243243245" width="13.513513513513514" height="13.513513513513514" fill="#000000"/><rect x="121.62162162162163" y="432.43243243243245" width="13.513513513513514" height="13.513513513513514" fill="#000000"/><rect x="135.13513513513513" y="432.43243243243245" width="13.513513513513514" height="13.513513513513514" fill="#000000"/><circle cx="182.43243243243245" cy="439.1891891891892" r="6.081081081081082" fill="#000000"/><circle cx="195.94594594594597" cy="439.1891891891892" r="6.081081081081082" fill="#000000"/><circle cx="209.45945945945948" cy="439.1891891891892" r="6.081081081081082" fill="#000000"/><circle cx="222.97297297297297" cy="439.1891891891892" r="6.081081081081082" fill="#000000"/><circle cx="236.48648648648648" cy="439.1891891891892" r="6.081081081081082" fill="#000000"/><circle cx="250" cy="439.1891891891892" r="6.081081081081082" fill="#000000"/><circle cx="290.5405405405406" cy="439.1891891891892" r="6.081081081081082" fill="#000000"/><circle cx="304.05405405405406" cy="439.1891891891892" r="6.081081081081082" fill="#000000"/><circle cx="317.5675675675676" cy="439.1891891891892" r="6.081081081081082" fill="#000000"/><circle cx="331.0810810810811" cy="439.1891891891892" r="6.081081081081082" fill="#000000"/><circle cx="344.5945945945946" cy="439.1891891891892" r="6.081081081081082" fill="#000000"/><circle cx="371.6216216216216" cy="439.1891891891892" r="6.081081081081082" fill="#000000"/><circle cx="385.13513513513516" cy="439.1891891891892" r="6.081081081081082" fill="#000000"/><rect x="194.25675675675677" y="194.25675675675677" width="111.4864864864865" height="111.4864864864865" fill="#f0f0f0"/><image x="201.01351351351354" y="201.01351351351354" width="97.97297297297298" height="97.97297297297298" href="https://image-service-cdn.seek.com.au/1bc3d061b5b9045b5586989008d4ce274a9ddb49/f3c5292cec0e05e4272d9bf9146f390d366481d0" preserveAspectRatio="xMidYMid meet"/></svg>